<svg xmlns="http://www.w3.org/2000/svg" width="361" height="72" fill="none"><g fill="#0069A2" clip-path="url(#a)"><path d="M93.81 49.55V39.31h-1.46v10.24h1.46Zm9.46 0V39.31h-1.4l.03 5.02c0 1.12.13 2.75.15 3.04l-.08.03a19.2 19.2 0 0 0-1.03-2.45l-2.9-5.65h-1.67v10.24h1.45l-.06-5.37a40.8 40.8 0 0 0-.13-2.85h.1c.2.58.73 1.73 1.26 2.8l2.71 5.43h1.57Zm9.75-5.11c0-1.41-.3-2.59-.91-3.43-.95-1.29-2.1-1.7-3.88-1.7h-2.4v10.24h2.57c1.8 0 2.77-.48 3.48-1.37a5.74 5.74 0 0 0 1.13-3.73l.01-.01Zm-1.6.17a5.5 5.5 0 0 1-.55 2.61c-.46.83-1.23 1.14-2.42 1.14h-1.14v-7.92h1.18c1 0 1.6.2 2.18.9.61.77.76 1.84.76 3.26v.01Zm10.6 1.72V39.3h-1.43v6.82c0 .82-.13 1.36-.38 1.7-.32.43-.9.67-1.68.67-.82 0-1.35-.25-1.64-.59-.3-.34-.37-1.25-.37-1.99v-6.6h-1.45v7.13c0 1.07.06 1.35.32 1.84.53.94 1.57 1.42 3.13 1.42 1.57 0 2.45-.57 2.98-1.2.46-.57.54-.88.54-2.17h-.01Zm9.2.23c0-1.6-1.14-2.48-2.52-2.89l-1.21-.36c-1.12-.32-1.53-.74-1.53-1.47 0-.95.73-1.55 1.88-1.55.85 0 1.5.22 2.46.8l.66-1a5.5 5.5 0 0 0-3.17-.97c-2.04 0-3.42 1.2-3.42 2.97 0 1.46.89 2.2 2.44 2.65l1.08.3c1.15.33 1.71.9 1.71 1.74 0 1.1-.89 1.78-2.24 1.78-1.04 0-1.89-.3-2.8-.84l-.57 1.1c1 .6 2.14.9 3.33.9 2.72 0 3.91-1.74 3.91-3.18l-.01.02Zm7.86-7.26h-6.95v1.19h2.7v9.05h1.42v-9.05h2.7l.15-1.19h-.02Zm7.75 10.24-1.5-2.37a27.7 27.7 0 0 0-.88-1.26 4.8 4.8 0 0 0-.9-.95c1.73.06 2.77-1.21 2.77-2.81 0-1-.45-1.68-.91-2.1-.5-.46-1.22-.75-2.46-.75h-2.9v10.24h1.45V45c.44.01.66.16.93.46.73.81.98 1.25 1.79 2.55.42.69.55.94.85 1.5h1.75l.01.02Zm-2.03-7.37c0 .6-.2 1.1-.5 1.39-.37.35-.89.5-1.8.5h-1v-3.57h1.08c.53 0 .96.07 1.26.2.58.22.97.79.97 1.5v-.02Zm5.08 7.37V39.3h-1.47v10.24h1.47Zm9.81 0-3.33-10.24h-1.8l-3.4 10.24h1.5l.91-2.9h3.6l.9 2.9h1.64-.02Zm-2.85-4.09h-2.92c.18-.5 1.28-4.14 1.43-4.73h.09c.13.6 1.21 4.26 1.4 4.73Zm9.54 2.9h-3.93V39.3h-1.47v10.24h5.18l.23-1.19h-.01Zm11.7-3.92c0-1.41-.3-2.6-.9-3.43-.96-1.29-2.1-1.7-3.89-1.7h-2.4v10.24h2.58c1.8 0 2.77-.48 3.48-1.38a5.74 5.74 0 0 0 1.13-3.72v-.01Zm-1.6.17a5.5 5.5 0 0 1-.54 2.61c-.47.83-1.23 1.14-2.42 1.14h-1.14v-7.92h1.18c1 0 1.6.2 2.17.9.62.77.77 1.83.77 3.26l-.01.01Zm9.51 4.93V48.3h-4.33v-3.5h3.32v-1.2h-3.33v-3.12h3.98l.2-1.18h-5.64v10.24h5.8v-.01Zm8.92-10.24h-1.5l-2.04 6.15-.42 1.36-.21.77h-.1c-.02-.21-.08-.45-.15-.77-.1-.44-.27-.99-.4-1.35l-1.97-6.16h-1.6L190 49.55h1.41l3.52-10.26h-.01Zm7.15 10.24V48.3h-4.34v-3.5h3.32v-1.2h-3.33v-3.12h3.98l.2-1.18h-5.63v10.24h5.8v-.01Zm7.13-1.2h-3.93V39.3h-1.46v10.24h5.17l.24-1.2h-.02Zm8.82-3.85c0-2.85-1.2-5.36-4.26-5.36-2.54 0-4.2 1.88-4.2 5.26 0 3.07 1.42 5.32 4.28 5.32 2.63 0 4.17-2.08 4.17-5.21v-.01Zm-1.65.13c0 2.85-.92 4-2.53 4-2.03 0-2.65-1.78-2.65-4.4 0-2.6.74-3.98 2.57-3.98 1.96 0 2.6 1.6 2.6 4.38Zm10.35-2.35a2.8 2.8 0 0 0-1.36-2.5c-.55-.35-1.13-.47-2.47-.47h-2.77v10.24h1.44v-4.01h1.72c1.1 0 1.65-.23 2.18-.62a2.96 2.96 0 0 0 1.26-2.63v-.01Zm-1.6.16c0 .58-.15 1-.44 1.35-.32.42-.78.58-1.49.58h-1.63v-3.9h1.35c.82 0 1.33.16 1.68.51.35.32.52.8.52 1.46Zm13.01 7.1-.89-10.24h-2.04l-1.8 6.35c-.2.68-.32 1.35-.37 1.6H233c-.03-.22-.15-.84-.38-1.68l-1.74-6.27h-2.03l-.92 10.23h1.41l.53-6.77c.05-.53.09-1.5.1-1.87h.02c.06.28.24 1.1.47 1.87l1.89 6.77h1.25l2.05-7.09c.16-.54.32-1.24.38-1.53h.02c.02.3.03 1.11.08 1.65l.54 6.97h1.45Zm7.98 0v-1.23h-4.34v-3.5h3.32v-1.2h-3.33v-3.12h3.98l.2-1.18h-5.63v10.24h5.8v-.02Zm8.62 0V39.27h-1.39l.03 5.01c0 1.13.12 2.75.15 3.05l-.09.02a19.2 19.2 0 0 0-1.02-2.45l-2.9-5.65h-1.68V49.5h1.46l-.07-5.37c0-.95-.05-1.98-.12-2.85h.09c.2.58.73 1.74 1.26 2.8l2.72 5.43h1.56Zm8.54-10.24h-6.95v1.19h2.7v9.04h1.42v-9.04h2.7l.15-1.2h-.02Zm12.35 5.18c0-2.84-1.2-5.36-4.24-5.36-2.55 0-4.2 1.88-4.2 5.26 0 3.07 1.42 5.33 4.27 5.33 2.63 0 4.17-2.08 4.17-5.21v-.02Zm-1.65.14c0 2.85-.92 4-2.53 4-2.03 0-2.64-1.78-2.64-4.4 0-2.6.73-3.98 2.56-3.98 1.96 0 2.6 1.6 2.6 4.38Zm10.53 4.91-1.5-2.36c-.35-.53-.67-.98-.88-1.26-.18-.24-.43-.57-.9-.96 1.73.07 2.77-1.2 2.77-2.8 0-1-.46-1.69-.92-2.11-.49-.46-1.21-.74-2.45-.74h-2.9V49.5h1.43v-4.53c.44.02.67.16.93.46.74.82.99 1.25 1.79 2.55.43.7.55.94.85 1.51h1.75l.03.01Zm-2.03-7.36c0 .6-.2 1.09-.51 1.38-.37.35-.88.5-1.8.5h-1v-3.56h1.1c.53 0 .96.07 1.26.2.57.22.96.79.96 1.5l-.01-.02Zm10.7 6.7v-4.78h-3.58l.24 1.17h1.92v2.91c-.43.24-.95.39-1.53.39-.89 0-1.78-.35-2.23-.92-.47-.62-.74-1.68-.74-3.1 0-1.2.1-1.94.57-2.92.45-.92 1.22-1.3 2.23-1.3.8 0 1.44.21 2.2.76l.69-.9a4.38 4.38 0 0 0-2.93-1.02c-1.03 0-1.86.27-2.6.88-1.2.96-1.8 2.38-1.8 4.43 0 1.68.38 2.89 1.2 3.84.8.91 1.9 1.37 3.29 1.37 1.09 0 2.23-.3 3.06-.81Zm9.74.66-3.33-10.23h-1.8l-3.4 10.23h1.5l.9-2.9h3.6l.91 2.9h1.62Zm-2.86-4.08h-2.92a166 166 0 0 0 1.43-4.73h.09c.14.6 1.21 4.26 1.4 4.73Zm11.03 4.08V39.28h-1.4l.04 5.01c0 1.13.12 2.75.15 3.05l-.09.02a18.9 18.9 0 0 0-1.03-2.45l-2.88-5.65h-1.67V49.5h1.45l-.06-5.37c-.02-.95-.05-1.98-.13-2.85h.09c.2.58.74 1.74 1.26 2.8l2.72 5.43h1.55Zm4.04 0V39.28h-1.48V49.5h1.48Zm8.41-1.18h-4.85c.18-.29.43-.59.65-.97l4.14-6.94v-1.14h-5.95l-.35 1.19h3.54c.52 0 .9-.02 1.2-.05-.22.27-.52.66-.75 1.05l-4.18 6.94v1.1h6.17l.37-1.18h.01Zm9.13 1.18-3.33-10.23h-1.8l-3.4 10.23h1.5l.9-2.9h3.6l.91 2.9h1.62Zm-2.86-4.08h-2.91c.17-.5 1.27-4.15 1.42-4.73h.1c.13.6 1.2 4.26 1.4 4.73Zm9.22-6.15h-6.95v1.19h2.7v9.04h1.42v-9.04h2.7l.14-1.2h-.01Zm2.45 10.23V39.28H340V49.5h1.46Zm10.55-5.05c0-2.84-1.2-5.36-4.25-5.36-2.54 0-4.2 1.88-4.2 5.26 0 3.07 1.42 5.33 4.28 5.33 2.63 0 4.18-2.08 4.18-5.21l-.01-.02Zm-1.65.14c0 2.85-.92 4-2.53 4-2.03 0-2.65-1.78-2.65-4.4 0-2.6.74-3.98 2.57-3.98 1.95 0 2.6 1.6 2.6 4.38ZM361 49.51V39.28h-1.39l.03 5.01c0 1.13.12 2.75.15 3.05l-.1.02a18.9 18.9 0 0 0-1.02-2.45l-2.89-5.65h-1.68V49.5h1.45l-.06-5.37c-.01-.95-.05-1.98-.12-2.85h.08c.2.58.74 1.74 1.27 2.8l2.72 5.43H361ZM99.24 28.52v-7.03H97.8v6.82c0 .82-.13 1.36-.38 1.7-.32.43-.9.66-1.68.66-.82 0-1.35-.24-1.64-.58-.3-.34-.37-1.25-.37-2v-6.6h-1.45v7.14c0 1.07.06 1.35.32 1.83.53.93 1.57 1.43 3.13 1.43 1.57 0 2.46-.57 2.98-1.2.47-.57.54-.88.54-2.17h-.01Zm9.38 3.2V21.5h-1.4l.03 5.02c0 1.13.13 2.75.15 3.05l-.09.02a19 19 0 0 0-1.02-2.45l-2.9-5.64h-1.67v10.24h1.45l-.06-5.38c-.02-.95-.05-1.98-.13-2.84h.09c.2.58.74 1.73 1.26 2.8l2.72 5.43h1.54l.03-.01Zm4.03 0V21.5h-1.47v10.24h1.47Zm8.54-10.23h-6.95v1.19h2.7v9.05h1.42v-9.05h2.7l.14-1.2h-.01Zm6.77 10.24V30.5h-4.33V27h3.32v-1.2h-3.33v-3.12h3.98l.2-1.18h-5.63v10.24h5.8v-.01Zm8.93-5.12c0-1.4-.3-2.58-.91-3.43-.95-1.28-2.1-1.7-3.88-1.7h-2.4v10.25h2.57c1.8 0 2.77-.5 3.48-1.38a5.74 5.74 0 0 0 1.13-3.72l.01-.02Zm-1.6.18a5.5 5.5 0 0 1-.55 2.6c-.47.84-1.23 1.15-2.42 1.15h-1.14V22.6h1.18c1 0 1.6.2 2.18.9.61.78.76 1.84.76 3.26l-.01.02Zm13.99 4.92V21.5h-1.4l.03 5.02c0 1.13.13 2.75.15 3.05l-.09.02c-.07-.28-.59-1.6-1.02-2.45l-2.9-5.64h-1.67v10.24h1.45l-.06-5.38c-.02-.95-.05-1.98-.13-2.84h.09c.2.58.74 1.73 1.26 2.8l2.72 5.43h1.54l.03-.03Zm9.81 0-3.33-10.23h-1.8l-3.4 10.23h1.5l.91-2.9h3.6l.9 2.9h1.64-.02Zm-2.85-4.08h-2.92c.18-.5 1.28-4.15 1.43-4.73h.09c.13.6 1.21 4.26 1.4 4.73Zm9.2-6.15h-6.95v1.18h2.7v9.05h1.42v-9.05h2.7l.15-1.18h-.02Zm2.46 10.23V21.5h-1.47v10.24h1.47v-.02Zm10.54-5.05c0-2.84-1.2-5.36-4.26-5.36-2.54 0-4.2 1.88-4.2 5.26 0 3.07 1.42 5.33 4.28 5.33 2.63 0 4.17-2.08 4.17-5.21l.01-.02Zm-1.65.14c0 2.85-.92 4-2.53 4-2.03 0-2.64-1.79-2.64-4.4 0-2.6.73-3.98 2.56-3.98 1.96 0 2.6 1.6 2.6 4.38Zm10.65 4.91V21.5h-1.4l.03 5.02c0 1.13.12 2.75.15 3.05l-.1.02c-.07-.28-.58-1.6-1.02-2.45l-2.88-5.64h-1.68v10.24H182l-.07-5.38c0-.95-.05-1.98-.12-2.84h.09c.2.58.73 1.73 1.26 2.8l2.72 5.43h1.54l.02-.03Zm9.27-2.98c0-1.58-1.14-2.48-2.53-2.88l-1.21-.36c-1.12-.33-1.53-.75-1.53-1.48 0-.95.72-1.54 1.88-1.54.85 0 1.5.22 2.46.8l.65-1.01a5.5 5.5 0 0 0-3.16-.97c-2.05 0-3.44 1.2-3.44 2.97 0 1.46.9 2.2 2.45 2.65l1.09.31c1.15.32 1.71.9 1.71 1.73 0 1.1-.89 1.79-2.24 1.79-1.04 0-1.89-.3-2.8-.85l-.57 1.1c1 .61 2.14.9 3.33.9 2.72 0 3.91-1.74 3.91-3.17v.01ZM37.48 23.8h.02-.02ZM37.9 23.4c-.13-.1-.27-.15-.4-.05-.12.2-.3.32-.51.44h1.03v-.11a1.65 1.65 0 0 1-.13-.3v.01ZM17 24.58h6.42l4.34 10.05.09-.04v-10h3.9V40.5h-5.74l-4.77-9.92h-.05v9.92H17V24.58ZM35.25 24.6h4.57V40.5h-4.57V24.6ZM42.72 40.58h7.08c5 0 8.06-2.81 8.06-8.04 0-4.92-3.01-7.9-8.06-7.9h-7.08v15.94Zm4.29-12.36h2.03c2.93 0 4.53 1.41 4.53 4.31 0 3.2-1.3 4.42-4.53 4.48H47v-8.79ZM14.09 33.92c0 4.64-2.16 6.94-7.05 6.94-4.9 0-7.04-2.3-7.04-6.94v-9.39h4.22v9.63c0 2.06.78 3.12 2.83 3.12s2.83-1.05 2.83-3.12v-9.63h4.22v9.39h-.01ZM67.23 37.35c2.73 0 3.77-2.38 3.77-4.77 0-2.39-1.04-4.77-3.77-4.77s-3.77 2.38-3.77 4.77c0 2.39 1.04 4.77 3.77 4.77Zm0-13.13c5.11 0 8 3.7 8 8.36 0 4.65-2.88 8.36-8 8.36s-8-3.7-8-8.36c0-4.65 2.88-8.36 8-8.36ZM50.89 12.08c.21-.23-.14-.5-.06-.8-.09-.26-.34-.39-.6-.46-.28.26-.53-.24-.78.06-.01.15.01.28.1.38.56.2.63 1 1.35.82h-.01ZM41.22 7.51l-1.93.82c-.16-.06-.46-.15-.57.06-.08.06 0 .16.02.22.72.9 1.94.4 2.83.23.64.26 1.26-.05 1.74-.45V8.3c-.45-.63-1.31-.73-2.09-.79Z"/><path d="M52.44 14.78c-.1-.21-.41-.38-.52-.6-.08-.73-.8-1.4-1.42-1.78-.52-.08-.64-.88-1.29-.63-.54-.44-1.2-.12-1.73.14v.05a21.63 21.63 0 0 0-8.91-2.4l.15-.12c.06-.13.01-.38 0-.53-.08-.13-.24-.28-.43-.18-.06.08-.13.32-.13.32v-3.6a25.6 25.6 0 0 1 16.81 6.83l-2.53 2.5Zm-4.98 4.93-2.88 2.84a10.9 10.9 0 0 0-6.42-2.57v-4.02c3.56.14 6.8 1.54 9.3 3.75ZM36.83 9.5a21.5 21.5 0 0 0-14.13 5.84l-2.9-2.87a25.7 25.7 0 0 1 17.03-7.02v4.06Zm0 5.12c-4.05.16-7.7 1.77-10.46 4.33l-2.71-2.68a20.13 20.13 0 0 1 13.18-5.44v3.8l-.01-.01Zm0 5.35a10.83 10.83 0 0 0-6.64 2.76l-2.88-2.85a14.93 14.93 0 0 1 9.52-3.93v4.02Zm25.27 3.81h1.39a26.87 26.87 0 0 0-26-19.67 26.88 26.88 0 0 0-26 19.68h1.4a25.28 25.28 0 0 1 5.97-10.4l2.9 2.88a21.17 21.17 0 0 0-4.57 7.51h1.42c.93-2.46 2.33-4.7 4.1-6.58l2.71 2.68a16.7 16.7 0 0 0-2.65 3.9h1.49a14.57 14.57 0 0 1 2.1-2.97l2.87 2.83-.17.13h2.16l.15-.14-.18-.03a9.6 9.6 0 0 1 5.61-2.3v2.5h1.33v-2.5a9.6 9.6 0 0 1 5.47 2.18l-.31.31h2.52l-.3-.33 2.88-2.85c.66.7 1.25 1.46 1.76 2.27 0 .05.05.07.04.1l-.04.08c.05.25-.15.5-.29.73h2.9c0-.17-.13-.34-.33-.34-.21-.07-.45 0-.45-.3.13-.19.43-.37.36-.66-.16-.2-.41-.02-.61-.03-.05-.33.55-.66.02-.96-.3-.05-.48.25-.76.26a18.11 18.11 0 0 0-1.38-1.75s-.02-.03-.05-.03c-.03-.72-.91-1.15-.96-1.9-.3-.25-.05-.75-.44-.97-.21-.16-.45-.35-.75-.22a8.61 8.61 0 0 0-1.18-1.37c-.14-.03-.22.04-.3.13.06.37.52.58.49.99-.06-.01-.13 0-.16.05.05.3.26.57.47.8a16.38 16.38 0 0 0-8.61-2.84v-3.8c2.87.08 5.58.77 8.04 1.94v.06c.31.46.91.7.99 1.28-.32.8 1.09.79.45 1.6-.04.26.19.41.27.61.08.22-.03.57.23.7.47.12.69-.53 1.16-.35.63.44.77 1.19.77 1.88.07.43.45.73.84.9.78-.24.4.62.96.84.61.08.93.86 1.6.8.6.44.94 1.11 1.48 1.6-.01.13.05.23.16.27.33.07.53-.15.8-.16l.1.13c.13.27.23.56.34.84h1.42c-.2-.57-.43-1.14-.68-1.68.04-.03.03-.29-.02-.4-.04-1.15-1.16-1.92-1.63-2.9a2.67 2.67 0 0 1-.58-.55l-.35-.46a20.3 20.3 0 0 0-1.5-1.73l.04-.04h.03v-.02l2.86-2.83c2.87 2.95 5 6.58 6.17 10.61h.03ZM8.41 16.59c1.5-1.38 3.16-2.44 4.47-4.04 1.47-2 2.83-4.17 4.8-5.88-2.68 1.03-5.67 2-7.3 4.8-1.14 1.51-1.16 3.47-1.97 5.12Z"/><path d="M8.13 20.76c2.85-1.98 5.83-4.77 5.87-8.3-.93 2.54-3.7 3.62-5.6 5.34a9.37 9.37 0 0 0-2.18 3.17c-.1.26-.06-.05-.06-.05.23-1.02.7-1.93.96-2.92.84-2.69.67-5.92 3.32-7.71a6.67 6.67 0 0 0-3.53 2.34c-2.2 2.29-1.98 5.8-1.68 8.88.05.8-.07 1.55-.07 2.3h.26a13.03 13.03 0 0 1 2.72-3.05h-.01ZM9.53 23.54c.6-1.32 1.05-2.76 1.23-4.2a5.5 5.5 0 0 1-1.13 1.67c-1 .89-2.05 1.8-2.96 2.78H9.4l.14-.25ZM4.78 15.09c-.06-.01-.11.04-.16.06-1.85 2.33-3.16 4.88-3.08 8l-.01.64h2.74c-.28-3-1.2-6.13.51-8.7ZM69.9 23.78c-.58-2.81.34-5.52-.29-8.3-.54-2.46-2.8-5.14-5.4-5.68 1.06.7 1.86 1.8 2.26 2.91.79 2.56 1.3 5.58 2.32 7.69.05.11.02.28-.07.06-.17-.46-.6-1.14-1.31-2.1-1.98-2.55-5.44-3.23-6.73-6.3.33 1.84.9 3.55 2.18 4.97 2.23 2.38 5.49 3.79 7.01 6.76l.03-.02ZM71.28 16.1c-.42-.53-.68-1.18-1.3-1.53.68.93.93 1.94 1.07 3.22.14 1.27-.06 2.36-.14 3.08-.07.73-.16 1.94-.17 2.93h2.7c.14-2.76-.61-5.63-2.16-7.7ZM64.05 18.94c.21 1.19.59 2.33 1.03 3.43.2.5.46.96.74 1.42h2.96c-1.52-1.65-3.68-2.92-4.73-4.85Z"/><path d="M61.68 11.9c1.26 1.57 3 3.04 4.71 4.25 0 0-.19-.4-.25-.69-.35-1.7-1.53-4.62-3.5-6.35-1.67-1.49-3.76-1.97-5.71-2.8 0 0 .1.2.91.92.8.73 2.6 3.1 3.84 4.66ZM6.12 42.95a15.3 15.3 0 0 1-.16-1.52h-.92c.32.45.83 1.05 1.08 1.52ZM70.31 42.72c-.22.23-.44.47-.64.72-.76.9-1.4 1.85-2.05 2.8-.23.33-.85 1.1-1.15 1.45-.07.08-.2.19-.1.05a9.44 9.44 0 0 0 1.56-6.32H65.6c-.27 3.39-.32 7.02-2.03 9.83 1.72-1.32 3.52-2.38 5.3-3.53a15.5 15.5 0 0 0 5.56-6.29h-2.78l-1.34 1.3v-.01Z"/><path d="M7.28 41.68c-.2 1.84.1 3.65.86 5.17.16.49.6.88.71 1.34-.2 0-1.15-1.45-1.67-2.18-1.04-1.7-2.63-3.1-4.07-4.58H.56c1.77 4.93 7.2 7.48 11.2 10.16-.38-.94-.95-1.8-1.23-2.78-.56-2.35-.67-4.9-.94-7.38H7.31l-.02.26-.01-.01ZM70.01 48.86c-3.1 2.3-6.72 3-9.73 5.93-.26.24-.95.69-.96.52a12.94 12.94 0 0 0 2.73-3.25c1.76-2.95 1.1-6.92 2.64-9.97-.94 1.01-1.6 2.14-2.4 3.22-2.53 3.78-2.32 8.76-6.1 11.97 2.23-.76 4.7-.96 7-1.56 4.46-1.4 9.18-5.81 9.76-10.51a9.36 9.36 0 0 1-2.93 3.65Z"/><path d="M19.2 57.49c-3.1-2.47-3.6-6.14-4.94-9.4-.9-2-2.24-3.82-3.73-5.58 1.63 3.23.87 7.44 3.06 10.43.6 1 1.59 1.87 2.45 2.64 0 0 .08.05-.04.04a9.44 9.44 0 0 1-2.18-1.48c-3.73-3.03-9.3-3.44-11.52-8.41.6 3.65 3.49 6.97 6.72 8.92 2.94 2.04 6.86 1.73 10.21 2.82l-.03.02ZM54.76 58.28c-1.19.12-3.44.68-3.5.52-.04-.16 1.88-.5 2.7-1.02 3.3-1.63 3.5-5.22 5.5-7.75-2.7 1.81-4.85 4.19-7.27 6.49-1.64 1.47-3.65 2.08-5.7 2.54v.02l.82.1c4.32.7 8.86 2.75 13.37 1.08 2.62-.92 5.5-3.08 6.65-5.67-3.1 3.71-8.15 3.02-12.57 3.7v-.01Z"/><path d="M27.17 59.47c.57-.15 1.24-.1 1.77-.29-2.17-.43-4.23-1.12-5.95-2.6-2.38-2.21-4.54-4.5-7.14-6.19 2.02 2.69 2.57 6.67 6.29 7.96.61.32 1.96.49 1.96.63 0 .15-1.32-.16-1.99-.24-4.74-1.04-10.56.3-14.13-3.72a11.93 11.93 0 0 0 6.8 5.56c4.14 1.39 8.49-.16 12.38-1.11h.01Z"/><path d="m52.07 62-3.12-1.22a15.41 15.41 0 0 0-9.5-1.52c-.33.06-.8.47-1.57.47s-1.25-.4-1.6-.47c-4.27-.57-8.78 1.2-12.7 2.88-2.92 1.14-6.75.95-9.32-.8a10.88 10.88 0 0 0 4.72 3.21c3.27 1.3 7.15.41 9.86-1.44 2.31-1.3 4.3-3.82 7.36-2.86a29.58 29.58 0 0 0-8.51 5.99l1.6 1.31a25.93 25.93 0 0 1 6.87-6.08c.55-.3 1.13-.64 1.73-.73 3.1 1.5 5.86 4.05 8.35 6.71.54-.42 1.1-.9 1.54-1.37a30.8 30.8 0 0 0-8.47-5.8 5.69 5.69 0 0 1 1.67-.17c1.64-.11 2.77 1.04 4.05 1.84 3.13 2.36 7.32 3.9 11.33 2.43 1.8-.63 3.54-1.76 4.82-3.33-2.48 1.75-6.22 2.04-9.11.98V62ZM38.16 56.01v-4.07c1.32-.04 2.61-.2 3.87-.46.16.03.36.04.36.04 1.01.2 1.74 1.83 2.87.83.38-.46 1.07-.42 1.31-1.07.65-.23.81-.9 1.29-1.32a2 2 0 0 1 .63-.88c0-.04 0-.09.02-.12 1.3-.77 2.53-1.67 3.63-2.69l2.9 2.87A25.62 25.62 0 0 1 38.19 56l-.02.01Zm0-8.84c.1.05.17.14.25.21l.05.04c.48.2 1.3-.2 1.57.35-.15.3-.38.6-.3.95.2.5.5 1.14 1.13 1.18.16.2.38.26.59.34l-.51.1c-.9.15-1.85.25-2.78.29v-3.46Zm9.88-4.07.1-.16.32-.27 1.94 1.92c.04.24.15.45.42.58l.06.01H51l.17.16c-.78.7-1.6 1.35-2.48 1.93.03-.2.44-.33.23-.6-.7-.63.43-1.17.64-1.75-.12-.62-.81-.96-1.35-1.14-.25-.15-.17-.46-.19-.67h.02Zm-11.21 7.53a20.14 20.14 0 0 1-13.14-5.4l-.07-.1.07-.07c.22.03.4.18.57.32l.16.11c.16.1.34.16.57.09.73-.08 1.3-.65 2.06-.53.36 0 .8 0 1.04-.33a1.54 1.54 0 0 1-.09-.28l-.06-.32a.9.9 0 0 1-.2-.35c.02.02.08 0 .12-.05 2.34 1.7 5.16 2.8 8.23 3.06l.07.18c.07 0 .14 0 .2.02l.33-.14v.06s.09-.06.14-.07v3.8Zm0 5.38a25.7 25.7 0 0 1-17.08-7.05l2.9-2.88c3.71 3.5 8.68 5.71 14.17 5.87v4.07Zm23.85-14.6a25.54 25.54 0 0 1-4.7 6.82l-2.91-2.88a21.36 21.36 0 0 0 2.98-3.93h-1.57c-.66 1.03-1.42 2-2.26 2.88l.11-.23c.03-.41-.31-.77-.25-1.22-.34-.32-.35-.94-.94-.92-.2-.03-.29.16-.29.32-.01.1.03.2-.03.26 0 .1 0 .23-.03.34v.28l-1.4-1.39.29-.3h-14.7c-.34.13-.66.31-.92.6-.16.37-.11.89-.59 1.05.03.75.72 1.39 1.2 1.93l.05.27a14.88 14.88 0 0 1-7.47-3.75l.11-.1h-1.6v.02-.04h-8.48s.11.08.2.1c.57-.15.36.63.78.86.32.2.5.67.96.45l.17-.2c.15.11.02.37.16.52.22.42.67.73 1.12.84.3.35.62.73.96 1.04l.1.11-2.9 2.88a25.3 25.3 0 0 1-4.53-6.6h-1.46a26.93 26.93 0 0 0 24.65 15.93c11.02 0 20.5-6.55 24.67-15.93h-1.48ZM69.05 42.95c.07-.5.13-1.01.16-1.52h.93c-.33.45-.84 1.05-1.1 1.52Z"/></g><defs><clipPath id="a"><path fill="#fff" d="M0 0h361v72H0z"/></clipPath></defs></svg>