<svg width="237" height="199" viewBox="0 0 237 199" fill="none" xmlns="http://www.w3.org/2000/svg">
<path d="M117.999 61.7404H118.076L118.038 61.7019L117.999 61.7404Z" fill="white"/>
<path d="M119.296 60.4597C118.903 60.149 118.471 59.9937 118.078 60.3043C117.685 60.9256 117.096 61.3139 116.468 61.7023H119.689C119.689 61.7023 119.689 61.4693 119.689 61.3528C119.532 61.081 119.414 60.7703 119.296 60.4208V60.4597Z" fill="white"/>
<path d="M53.7793 64.1873H73.8909L87.5213 95.7179L87.7962 95.5626V64.1873H100.052V114.163H82.022L67.0561 83.0202H66.899V114.163H53.7793V64.1873Z" fill="white"/>
<path d="M111.009 64.2266H125.346V114.163H111.009V64.2266Z" fill="white"/>
<path d="M134.456 114.357H156.65C172.322 114.357 181.946 105.542 181.946 89.1557C181.946 73.701 172.48 64.3816 156.65 64.3816H134.456V114.318V114.357ZM147.89 75.6037H154.253C163.445 75.6037 168.473 80.0304 168.473 89.1168C168.473 99.1352 164.427 102.979 154.253 103.174H147.89V75.6037Z" fill="white"/>
<path d="M44.6242 93.466C44.6242 108.028 37.8679 115.25 22.5092 115.25C7.15056 115.25 0.433594 108.028 0.433594 93.466V64.0322H13.6711V94.2426C13.6711 100.689 16.1065 104.028 22.5485 104.028C28.9905 104.028 31.4259 100.727 31.4259 94.2426V64.0322H44.6635V93.466H44.6242Z" fill="white"/>
<path d="M211.334 104.222C219.897 104.222 223.157 96.7667 223.157 89.2723C223.157 81.778 219.897 74.3225 211.334 74.3225C202.77 74.3225 199.51 81.778 199.51 89.2723C199.51 96.7667 202.77 104.222 211.334 104.222ZM211.334 63.0615C227.36 63.0615 236.434 74.6719 236.434 89.2723C236.434 103.873 227.399 115.483 211.334 115.483C195.268 115.483 186.233 103.873 186.233 89.2723C186.233 74.6719 195.268 63.0615 211.334 63.0615Z" fill="white"/>
<path d="M160.072 24.968C160.739 24.2302 159.64 23.4148 159.875 22.4829C159.6 21.6286 158.815 21.2403 157.99 21.0073C157.126 21.8227 156.34 20.2695 155.554 21.2014C155.515 21.6674 155.594 22.0945 155.869 22.4052C157.636 23.0265 157.833 25.5505 160.111 24.968H160.072Z" fill="white"/>
<path d="M129.744 10.6394L123.695 13.2022C123.184 13.0081 122.242 12.7363 121.888 13.3964C121.653 13.5905 121.888 13.9012 121.967 14.0953C124.206 16.93 128.055 15.3379 130.844 14.7943C132.847 15.6098 134.772 14.639 136.304 13.3964V13.1246C134.89 11.1442 132.18 10.8336 129.744 10.6394Z" fill="white"/>
<path d="M164.942 33.4333C164.628 32.7732 163.646 32.2296 163.293 31.5695C163.057 29.2784 160.818 27.1427 158.854 25.9778C157.204 25.706 156.851 23.2208 154.808 23.9975C153.119 22.5995 151.037 23.6091 149.387 24.4246V24.5799C140.942 20.192 131.475 17.5515 121.42 17.0467C121.577 16.9302 121.734 16.8137 121.891 16.6973C122.087 16.2701 121.93 15.4935 121.891 15.0275C121.655 14.6004 121.145 14.1344 120.555 14.4451C120.359 14.7169 120.123 15.4547 120.123 15.4547V4.19373C140.51 4.69853 159.011 12.7365 172.877 25.5895L164.942 33.4333ZM149.309 48.888L140.274 57.8191C134.775 53.1594 127.822 50.2083 120.123 49.7423V37.1223C131.318 37.5882 141.492 41.9761 149.309 48.888ZM115.96 16.9302C98.794 17.435 83.2782 24.3081 71.6512 35.2196L62.5381 26.2108C76.4827 13.0083 95.2588 4.73736 115.96 4.19373V16.9302ZM115.96 32.9674C103.272 33.4722 91.8021 38.5202 83.1604 46.5582L74.6365 38.1319C85.4779 27.9582 99.9724 21.5899 115.999 21.0851V33.0062L115.96 32.9674ZM115.96 49.7423C107.946 50.2083 100.719 53.3924 95.1409 58.4016L86.1064 49.4705C94.0018 42.2091 104.45 37.5882 115.96 37.1223V49.7423ZM195.228 61.7022H199.588C189.925 26.172 157.086 0 118.041 0C78.9966 0 46.1974 26.172 36.4951 61.741H40.8553C44.4298 49.3928 50.9111 38.2484 59.5921 29.1231L68.7051 38.1319C62.381 44.8496 57.4709 52.8488 54.3678 61.7022H58.8064C61.7132 53.9749 66.1126 46.9853 71.6512 41.0442L80.175 49.4705C76.8362 53.1206 74.0473 57.2366 71.8476 61.7022H76.522C78.3289 58.3239 80.5286 55.2174 83.1211 52.3828L92.1163 61.275C92.1163 61.275 91.7628 61.508 91.6057 61.6634H98.3619C98.5191 61.508 98.6762 61.3527 98.8333 61.2362C98.6369 61.2362 98.4405 61.1586 98.2834 61.1197C103.076 57.0037 109.164 54.3632 115.881 53.8972V61.741H120.045V53.8972C126.565 54.3632 132.497 56.8483 137.21 60.7702L136.228 61.741H144.124C143.809 61.3915 143.495 61.0421 143.181 60.6926L152.216 51.7615C154.297 53.936 156.144 56.3435 157.754 58.8675C157.754 59.0229 157.911 59.1005 157.872 59.217C157.872 59.2558 157.754 59.3723 157.754 59.45C157.911 60.2266 157.283 61.0032 156.851 61.741H165.964C165.924 61.1974 165.532 60.6538 164.903 60.6538C164.235 60.4596 163.489 60.6538 163.489 59.7218C163.882 59.1394 164.825 58.5569 164.628 57.6638C164.118 57.0425 163.332 57.5861 162.703 57.5473C162.546 56.5377 164.432 55.4893 162.782 54.5573C161.839 54.402 161.25 55.3339 160.386 55.3728C160.111 54.7903 156.34 49.9753 156.065 49.8588C156.026 49.8588 155.986 49.7811 155.908 49.7811C155.79 47.5289 153.04 46.1699 152.883 43.84C151.941 43.0246 152.726 41.4713 151.508 40.7724C150.841 40.2676 150.094 39.6851 149.152 40.0734C148.091 38.559 146.873 37.1223 145.459 35.802C145.027 35.6855 144.752 35.9185 144.517 36.1903C144.713 37.3553 146.127 38.0154 146.048 39.2968C145.852 39.258 145.656 39.2968 145.538 39.4521C145.695 40.4229 146.363 41.2383 147.03 41.9761C139.292 36.6951 130.022 33.4333 120.006 33.045V21.124C129.001 21.3958 137.525 23.5703 145.224 27.2204C145.224 27.2981 145.224 27.3757 145.224 27.4146C146.206 28.8513 148.091 29.5891 148.327 31.4141C147.345 33.9381 151.744 33.8993 149.741 36.4622C149.623 37.2776 150.33 37.7436 150.605 38.3649C150.841 39.0638 150.487 40.1511 151.312 40.5782C152.805 40.9277 153.472 38.9085 154.965 39.4521C156.929 40.85 157.361 43.1799 157.361 45.3544C157.597 46.7135 158.775 47.6454 159.993 48.1502C162.468 47.4124 161.289 50.1306 163.018 50.8296C164.942 51.0625 165.924 53.5089 168.046 53.3147C169.931 54.7126 170.992 56.8095 172.681 58.3627C172.641 58.751 172.838 59.0617 173.191 59.1782C174.213 59.4112 174.841 58.7122 175.705 58.6734C175.784 58.8287 175.98 59.1394 176.02 59.1005C176.412 59.9548 176.727 60.8479 177.08 61.741H181.519C180.89 59.9548 180.183 58.1686 179.398 56.46C179.515 56.3824 179.476 55.5669 179.319 55.1786C179.201 51.6062 175.705 49.1987 174.213 46.0922C173.506 45.6262 172.916 45.0049 172.406 44.3836C172.013 43.9177 171.659 43.4129 171.306 42.9469C170.795 42.2479 170.285 41.549 169.656 40.9277C168.674 39.7628 167.653 38.5978 166.592 37.5106L166.71 37.3941H166.828V37.3164L175.784 28.463C184.779 37.7047 191.496 49.0822 195.149 61.741L195.228 61.7022Z" fill="white"/>
<path d="M26.8271 39.1025C31.5015 34.7923 36.7258 31.4528 40.8503 26.4437C45.4461 20.1531 49.7277 13.3577 55.8947 7.99902C47.4887 11.222 38.1007 14.2896 32.9942 23.0654C29.4197 27.8027 29.3411 33.938 26.8271 39.1025Z" fill="white"/>
<path d="M25.9236 52.1883C34.8796 45.9753 44.2283 37.2384 44.3462 26.1716C41.4394 34.1319 32.7191 37.5102 26.7878 42.9077C23.7632 45.8589 21.2492 49.4701 19.953 52.8484C19.6387 53.6638 19.7566 52.6931 19.7566 52.6931C20.4636 49.509 21.9563 46.6355 22.7812 43.529C25.4129 35.1027 24.863 24.9679 33.1905 19.3374C28.9089 20.4247 25.0987 22.9875 22.1134 26.6764C15.2 33.8601 15.9071 44.8881 16.8498 54.557C17.0069 57.0421 16.6141 59.4108 16.6141 61.7407H17.439C19.5209 58.2071 22.7026 55.0229 25.9629 52.1883H25.9236Z" fill="white"/>
<path d="M30.3251 60.9254C32.2106 56.7705 33.6247 52.2661 34.1746 47.7617C33.4283 49.6644 32.132 51.3342 30.6393 52.9651C27.4969 55.7609 24.1973 58.6344 21.3691 61.702H29.893C30.0501 61.4302 30.168 61.1972 30.3251 60.9254Z" fill="white"/>
<path d="M15.4375 34.4038C15.2411 34.365 15.084 34.5203 14.9269 34.598C9.11338 41.8982 5.02821 49.8973 5.26389 59.7215C5.22461 60.3817 5.22461 61.0418 5.22461 61.7019H13.827C12.9629 52.3048 10.0561 42.4806 15.4375 34.4038Z" fill="white"/>
<path d="M219.701 61.6637C217.895 52.8491 220.762 44.3452 218.798 35.6471C217.109 27.9197 210.038 19.4935 201.868 17.8237C205.168 20.0371 207.682 23.4542 208.939 26.949C211.413 34.987 213.024 44.4617 216.206 51.0629C216.363 51.4124 216.284 51.956 216.009 51.2571C215.459 49.8203 214.124 47.6846 211.885 44.6947C205.678 36.6567 194.837 34.521 190.791 24.9298C191.812 30.6767 193.58 36.0354 197.626 40.5009C204.618 47.9565 214.831 52.3832 219.623 61.7026L219.701 61.6249V61.6637Z" fill="white"/>
<path d="M224.019 37.5494C222.722 35.9185 221.897 33.8605 219.973 32.7732C222.094 35.6855 222.879 38.8696 223.312 42.8692C223.744 46.8688 223.115 50.2859 222.879 52.5381C222.644 54.8291 222.369 58.6345 222.329 61.741H230.814C231.246 53.0817 228.889 44.073 224.019 37.5494Z" fill="white"/>
<path d="M201.354 46.4805C202.022 50.2082 203.201 53.7807 204.575 57.2366C205.204 58.7898 206.029 60.2654 206.893 61.7022H216.203C211.41 56.5377 204.654 52.5381 201.354 46.4805Z" fill="white"/>
<path d="M193.93 24.3857C197.858 29.3173 203.357 33.9381 208.699 37.7436C208.699 37.7436 208.11 36.501 207.913 35.569C206.814 30.2104 203.121 21.0851 196.954 15.6488C191.691 10.9891 185.131 9.47471 179.003 6.87305C179.003 6.87305 179.356 7.49434 181.87 9.74653C184.384 12.0375 190.001 19.4931 193.93 24.3857Z" fill="white"/>
<path d="M19.6459 121.813C19.4102 120.259 19.2138 118.628 19.1353 117.036H16.2285C17.2498 118.434 18.8603 120.337 19.6459 121.813Z" fill="white"/>
<path d="M220.992 121.074C220.285 121.812 219.617 122.55 218.989 123.326C216.593 126.161 214.59 129.151 212.547 132.102C211.84 133.151 209.876 135.558 208.933 136.684C208.737 136.917 208.344 137.267 208.619 136.84C211.722 131.947 213.45 127.365 213.725 121.773C213.765 120.142 213.725 118.55 213.529 116.997H206.223C205.359 127.637 205.202 139.014 199.859 147.829C205.241 143.713 210.897 140.373 216.475 136.762C224.135 131.597 230.38 124.841 233.916 117.036H225.195C223.82 118.395 222.406 119.754 220.992 121.113V121.074Z" fill="white"/>
<path d="M23.2585 117.813C22.6693 123.599 23.5727 129.268 25.9688 134.044C26.4795 135.559 27.8543 136.801 28.2078 138.238C27.5793 138.238 24.594 133.695 22.9442 131.404C19.6839 126.084 14.6953 121.657 10.178 117.036H2.2041C7.74266 132.491 24.7904 140.49 37.3209 148.916C36.1425 145.965 34.3356 143.247 33.4714 140.18C31.7038 132.802 31.3503 124.841 30.5254 117.036H23.3763C23.3763 117.308 23.2977 117.58 23.2977 117.852L23.2585 117.813Z" fill="white"/>
<path d="M220.053 140.335C210.312 147.557 198.96 149.732 189.532 158.935C188.707 159.711 186.547 161.109 186.508 160.566C189.886 157.653 192.95 154.081 195.071 150.392C200.609 141.111 198.527 128.685 203.359 119.094C200.413 122.278 198.331 125.812 195.817 129.19C187.882 141.072 188.55 156.682 176.688 166.74C183.679 164.371 191.418 163.75 198.645 161.847C212.629 157.459 227.438 143.635 229.284 128.88C227.556 133.229 223.981 137.267 220.092 140.335H220.053Z" fill="white"/>
<path d="M60.6525 167.4C50.9502 159.672 49.379 148.14 45.176 137.927C42.3478 131.675 38.1448 125.928 33.4704 120.414C38.5769 130.549 36.1807 143.752 43.0548 153.149C44.9403 156.255 48.0435 159.012 50.7538 161.42C50.7538 161.42 50.9895 161.575 50.636 161.536C49.7718 161.42 45.9223 158.779 43.8012 156.915C32.0956 147.402 14.6157 146.12 7.66309 130.51C9.54855 141.965 18.5831 152.372 28.7174 158.507C37.9484 164.914 50.2432 163.944 60.7703 167.361L60.6525 167.4Z" fill="white"/>
<path d="M172.209 169.885C168.477 170.274 161.406 172.021 161.249 171.516C161.092 171.011 167.141 169.963 169.695 168.332C180.025 163.206 180.693 151.945 186.939 144.024C178.493 149.693 171.737 157.149 164.156 164.371C159.01 168.992 152.686 170.895 146.244 172.332V172.409L148.837 172.72C162.388 174.894 176.647 181.34 190.788 176.098C198.998 173.225 208.032 166.429 211.646 158.314C201.944 169.963 186.075 167.788 172.209 169.924V169.885Z" fill="white"/>
<path d="M85.6721 173.613C87.4397 173.147 89.5609 173.302 91.2107 172.72C84.4151 171.36 77.9339 169.186 72.5524 164.565C65.0891 157.614 58.2936 150.469 50.1625 145.15C56.4867 153.576 58.215 166.079 69.8814 170.118C71.8061 171.127 76.0484 171.632 76.0484 172.098C76.0484 172.564 71.8847 171.593 69.8028 171.322C54.9155 168.06 36.65 172.254 25.4551 159.672C29.6974 167.905 38.3784 174.506 46.8237 177.107C59.7863 181.456 73.4166 176.603 85.6328 173.613H85.6721Z" fill="white"/>
<path d="M163.759 181.573L153.978 177.729C145.415 173.224 134.377 171.205 124.203 172.952C123.143 173.147 121.65 174.428 119.254 174.428C116.858 174.428 115.326 173.185 114.265 172.952C100.831 171.166 86.6904 176.758 74.3956 182C65.2432 185.572 53.2234 184.99 45.1709 179.515C49.1775 184.446 54.4804 187.475 59.9797 189.572C70.2319 193.61 82.4088 190.853 90.8934 185.029C98.1603 180.99 104.406 173.069 113.99 176.059C104.249 180.563 95.3321 186.815 87.2796 194.853L92.3075 198.969C98.1996 191.203 105.977 184.873 113.873 179.903C115.601 178.971 117.408 177.884 119.293 177.612C128.996 182.311 137.677 190.31 145.493 198.658C147.182 197.338 148.95 195.863 150.325 194.348C142.194 186.582 133.316 180.524 123.732 176.137C125.342 175.671 127.149 175.593 128.996 175.632C134.141 175.282 137.677 178.894 141.683 181.418C151.503 188.795 164.662 193.649 177.232 189.028C182.888 187.048 188.348 183.514 192.355 178.583C184.577 184.058 172.833 184.99 163.759 181.65V181.573Z" fill="white"/>
<path d="M120.123 162.779V150.003C124.287 149.887 128.333 149.382 132.261 148.567C132.772 148.644 133.4 148.683 133.4 148.683C136.582 149.304 138.86 154.43 142.396 151.285C143.613 149.848 145.774 149.964 146.52 147.945C148.563 147.207 149.073 145.111 150.566 143.79C150.998 142.625 151.666 141.732 152.53 141.033C152.53 140.917 152.569 140.762 152.608 140.645C156.694 138.238 160.543 135.403 164 132.219L173.113 141.228C159.208 154.158 140.667 162.235 120.202 162.74L120.123 162.779ZM120.123 135.053C120.438 135.209 120.673 135.481 120.909 135.714C120.948 135.714 121.027 135.791 121.066 135.83C122.598 136.451 125.151 135.209 126.016 136.917C125.544 137.888 124.798 138.781 125.073 139.907C125.701 141.46 126.644 143.48 128.608 143.596C129.119 144.256 129.786 144.412 130.454 144.683C129.904 144.761 128.804 144.955 128.844 144.994C126.016 145.46 123.069 145.771 120.123 145.887V135.053ZM151.116 122.278C151.116 122.278 151.469 121.812 151.43 121.773C151.784 121.501 152.098 121.191 152.451 120.919L158.54 126.938C158.658 127.714 159.011 128.375 159.836 128.763C159.915 128.763 159.993 128.802 160.032 128.802C160.15 128.802 160.229 128.802 160.347 128.802C160.347 128.802 160.386 128.802 160.425 128.802L160.936 129.306C158.501 131.52 155.908 133.539 153.158 135.364C153.276 134.704 154.533 134.316 153.905 133.461C151.705 131.481 155.24 129.811 155.908 127.986C155.515 126.045 153.355 124.957 151.666 124.414C150.88 123.948 151.116 122.977 151.076 122.317L151.116 122.278ZM115.96 145.887C100.012 145.382 85.5959 139.053 74.7545 128.957C74.7545 128.957 74.5581 128.685 74.5188 128.646L74.7545 128.413C75.4222 128.53 75.9721 128.996 76.5221 129.423C76.7185 129.539 76.8756 129.656 77.0327 129.772C77.5434 130.083 78.0933 130.277 78.8396 130.044C81.1179 129.811 82.8855 128.025 85.2816 128.375C86.4208 128.375 87.7956 128.375 88.5419 127.365C88.4241 127.093 88.3455 126.821 88.267 126.472C88.1884 126.122 88.1491 125.773 88.0705 125.462C87.7956 125.113 87.5206 124.763 87.4421 124.375C87.5206 124.453 87.717 124.375 87.8349 124.22C95.1803 129.539 104.018 132.995 113.642 133.811C113.721 134.005 113.799 134.199 113.878 134.393C114.074 134.393 114.31 134.393 114.506 134.432L115.528 134.005V134.199C115.528 134.199 115.803 134.005 115.96 133.966V145.887ZM115.96 162.779C95.1803 162.235 76.365 153.925 62.3811 140.645L71.4942 131.636C83.1212 142.625 98.7156 149.537 115.92 150.042V162.817L115.96 162.779ZM190.789 116.997C187.057 124.919 182.03 132.102 176.02 138.354L166.907 129.345C170.481 125.618 173.624 121.463 176.255 116.997H171.345C169.263 120.22 166.867 123.249 164.235 126.045C164.353 125.812 164.471 125.54 164.589 125.307C164.668 124.025 163.607 122.899 163.803 121.501C162.743 120.492 162.704 118.55 160.857 118.589C160.229 118.511 159.954 119.094 159.954 119.599C159.915 119.909 160.032 120.22 159.836 120.414C159.836 120.764 159.836 121.152 159.757 121.501C159.757 121.773 159.757 122.045 159.757 122.356L155.358 118.007C155.672 117.696 155.947 117.347 156.262 117.036H110.146C109.086 117.463 108.104 118.046 107.279 118.977C106.768 120.104 106.925 121.734 105.433 122.239C105.511 124.608 107.672 126.588 109.164 128.297C109.243 128.685 109.321 129.073 109.361 129.151C100.365 127.52 92.3128 123.326 85.9101 117.385L86.2636 117.036H81.2357V117.114C81.2357 117.114 81.2357 117.036 81.2357 116.997H54.6428C54.6428 116.997 54.9964 117.269 55.2713 117.308C57.0389 116.842 56.4104 119.288 57.7067 120.026C58.728 120.647 59.2779 122.123 60.7313 121.424L61.242 120.802C61.7133 121.152 61.3205 121.967 61.7526 122.433C62.4596 123.754 63.8737 124.724 65.2878 125.074C66.2306 126.161 67.2126 127.365 68.2732 128.336C68.391 128.452 68.5089 128.569 68.5874 128.685L59.4743 137.694C53.7001 131.597 48.9079 124.647 45.2941 116.997H40.6982C53.7787 146.431 83.4747 166.972 118.042 166.972C152.608 166.972 182.344 146.431 195.424 116.997H190.789Z" fill="white"/>
<path d="M217.026 121.812C217.262 120.259 217.458 118.628 217.537 117.036H220.444C219.422 118.434 217.812 120.337 217.026 121.812Z" fill="white"/>
</svg>
