<svg xmlns="http://www.w3.org/2000/svg" xmlns:xlink="http://www.w3.org/1999/xlink"><defs><symbol fill="currentColor" class="bi bi-arrow-down" viewBox="0 0 16 16" id="arrow-down"><path fill-rule="evenodd" d="M8 1a.5.5 0 0 1 .5.5v11.793l3.146-3.147a.5.5 0 0 1 .708.708l-4 4a.5.5 0 0 1-.708 0l-4-4a.5.5 0 0 1 .708-.708L7.5 13.293V1.5A.5.5 0 0 1 8 1z" /></symbol><symbol fill="currentColor" class="bi bi-arrow-left" viewBox="0 0 16 16" id="arrow-left"><path fill-rule="evenodd" d="M15 8a.5.5 0 0 0-.5-.5H2.707l3.147-3.146a.5.5 0 1 0-.708-.708l-4 4a.5.5 0 0 0 0 .708l4 4a.5.5 0 0 0 .708-.708L2.707 8.5H14.5A.5.5 0 0 0 15 8z" /></symbol><symbol fill="currentColor" class="bi bi-arrow-right" viewBox="0 0 16 16" id="arrow-right"><path fill-rule="evenodd" d="M1 8a.5.5 0 0 1 .5-.5h11.793l-3.147-3.146a.5.5 0 0 1 .708-.708l4 4a.5.5 0 0 1 0 .708l-4 4a.5.5 0 0 1-.708-.708L13.293 8.5H1.5A.5.5 0 0 1 1 8z" /></symbol><symbol fill="currentColor" class="bi bi-calendar-event" viewBox="0 0 16 16" id="calendar-event"><path d="M11 6.5a.5.5 0 0 1 .5-.5h1a.5.5 0 0 1 .5.5v1a.5.5 0 0 1-.5.5h-1a.5.5 0 0 1-.5-.5v-1z" /><path d="M3.5 0a.5.5 0 0 1 .5.5V1h8V.5a.5.5 0 0 1 1 0V1h1a2 2 0 0 1 2 2v11a2 2 0 0 1-2 2H2a2 2 0 0 1-2-2V3a2 2 0 0 1 2-2h1V.5a.5.5 0 0 1 .5-.5zM1 4v10a1 1 0 0 0 1 1h12a1 1 0 0 0 1-1V4H1z" /></symbol><symbol fill="currentColor" class="bi bi-chevron-down" viewBox="0 0 16 16" id="chevron-down"><path fill-rule="evenodd" d="M1.646 4.646a.5.5 0 0 1 .708 0L8 10.293l5.646-5.647a.5.5 0 0 1 .708.708l-6 6a.5.5 0 0 1-.708 0l-6-6a.5.5 0 0 1 0-.708z" /></symbol><symbol fill="currentColor" class="bi bi-facebook" viewBox="0 0 16 16" id="facebook"><path d="M16 8.049c0-4.446-3.582-8.05-8-8.05C3.58 0-.002 3.603-.002 8.05c0 4.017 2.926 7.347 6.75 7.951v-5.625h-2.03V8.05H6.75V6.275c0-2.017 1.195-3.131 3.022-3.131.876 0 1.791.157 1.791.157v1.98h-1.009c-.993 0-1.303.621-1.303 1.258v1.51h2.218l-.354 2.326H9.25V16c3.824-.604 6.75-3.934 6.75-7.951z" /></symbol><symbol fill="currentColor" class="bi bi-file-earmark-pdf" viewBox="0 0 16 16" id="file-earmark-pdf"><path d="M14 14V4.5L9.5 0H4a2 2 0 0 0-2 2v12a2 2 0 0 0 2 2h8a2 2 0 0 0 2-2zM9.5 3A1.5 1.5 0 0 0 11 4.5h2V14a1 1 0 0 1-1 1H4a1 1 0 0 1-1-1V2a1 1 0 0 1 1-1h5.5v2z" /><path d="M4.603 14.087a.81.81 0 0 1-.438-.42c-.195-.388-.13-.776.08-1.102.198-.307.526-.568.897-.787a7.68 7.68 0 0 1 1.482-.645 19.697 19.697 0 0 0 1.062-2.227 7.269 7.269 0 0 1-.43-1.295c-.086-.4-.119-.796-.046-1.136.075-.354.274-.672.65-.823.192-.077.4-.12.602-.077a.7.7 0 0 1 .477.365c.088.164.12.356.127.538.007.188-.012.396-.047.614-.084.51-.27 1.134-.52 1.794a10.954 10.954 0 0 0 .98 1.686 5.753 5.753 0 0 1 1.334.05c.364.066.734.195.96.465.12.144.193.32.2.518.007.192-.047.382-.138.563a1.04 1.04 0 0 1-.354.416.856.856 0 0 1-.51.138c-.331-.014-.654-.196-.933-.417a5.712 5.712 0 0 1-.911-.95 11.651 11.651 0 0 0-1.997.406 11.307 11.307 0 0 1-1.02 1.51c-.292.35-.609.656-.927.787a.793.793 0 0 1-.58.029zm1.379-1.901c-.166.076-.32.156-.459.238-.328.194-.541.383-.647.547-.094.145-.096.25-.04.361.01.022.02.036.026.044a.266.266 0 0 0 .035-.012c.137-.056.355-.235.635-.572a8.18 8.18 0 0 0 .45-.606zm1.64-1.33a12.71 12.71 0 0 1 1.01-.193 11.744 11.744 0 0 1-.51-.858 20.801 20.801 0 0 1-.5 1.05zm2.446.45c.15.163.296.3.435.41.24.19.407.253.498.256a.107.107 0 0 0 .07-.015.307.307 0 0 0 .094-.125.436.436 0 0 0 .059-.2.095.095 0 0 0-.026-.063c-.052-.062-.2-.152-.518-.209a3.876 3.876 0 0 0-.612-.053zM8.078 7.8a6.7 6.7 0 0 0 .2-.828c.031-.188.043-.343.038-.465a.613.613 0 0 0-.032-.198.517.517 0 0 0-.145.04c-.087.035-.158.106-.196.283-.04.192-.03.469.046.822.024.111.054.227.09.346z" /></symbol><symbol fill="currentColor" class="bi bi-filetype-doc" viewBox="0 0 16 16" id="filetype-doc"><path fill-rule="evenodd" d="M14 4.5V14a2 2 0 0 1-2 2v-1a1 1 0 0 0 1-1V4.5h-2A1.5 1.5 0 0 1 9.5 3V1H4a1 1 0 0 0-1 1v9H2V2a2 2 0 0 1 2-2h5.5L14 4.5Zm-7.839 9.166v.522c0 .256-.039.47-.117.641a.861.861 0 0 1-.322.387.877.877 0 0 1-.469.126.883.883 0 0 1-.471-.126.868.868 0 0 1-.32-.386 1.55 1.55 0 0 1-.117-.642v-.522c0-.257.04-.471.117-.641a.868.868 0 0 1 .32-.387.868.868 0 0 1 .471-.129c.176 0 .332.043.469.13a.861.861 0 0 1 .322.386c.078.17.117.384.117.641Zm.803.519v-.513c0-.377-.068-.7-.205-.972a1.46 1.46 0 0 0-.589-.63c-.254-.147-.56-.22-.917-.22-.355 0-.662.073-.92.22a1.441 1.441 0 0 0-.589.627c-.136.271-.205.596-.205.975v.513c0 .375.069.7.205.973.137.271.333.48.59.627.257.144.564.216.92.216.357 0 .662-.072.916-.216.256-.147.452-.356.59-.627.136-.274.204-.598.204-.973ZM0 11.926v4h1.459c.402 0 .735-.08.999-.238a1.45 1.45 0 0 0 .595-.689c.13-.3.196-.662.196-1.084 0-.42-.065-.778-.196-1.075a1.426 1.426 0 0 0-.59-.68c-.263-.156-.598-.234-1.004-.234H0Zm.791.645h.563c.248 0 .45.05.609.152a.89.89 0 0 1 .354.454c.079.201.118.452.118.753a2.3 2.3 0 0 1-.068.592 1.141 1.141 0 0 1-.196.422.8.8 0 0 1-.334.252 1.298 1.298 0 0 1-.483.082H.79V12.57Zm7.422.483a1.732 1.732 0 0 0-.103.633v.495c0 .246.034.455.103.627a.834.834 0 0 0 .298.393.845.845 0 0 0 .478.131.868.868 0 0 0 .401-.088.699.699 0 0 0 .273-.248.8.8 0 0 0 .117-.364h.765v.076a1.268 1.268 0 0 1-.226.674c-.137.194-.32.345-.55.454a1.81 1.81 0 0 1-.786.164c-.36 0-.664-.072-.914-.216a1.424 1.424 0 0 1-.571-.627c-.13-.272-.194-.597-.194-.976v-.498c0-.379.066-.705.197-.978.13-.274.321-.485.571-.633.252-.149.556-.223.911-.223.219 0 .421.032.607.097.187.062.35.153.489.272a1.326 1.326 0 0 1 .466.964v.073H9.78a.85.85 0 0 0-.12-.38.7.7 0 0 0-.273-.261.802.802 0 0 0-.398-.097.814.814 0 0 0-.475.138.868.868 0 0 0-.301.398Z" /></symbol><symbol fill="currentColor" class="bi bi-filetype-docx" viewBox="0 0 16 16" id="filetype-docx"><path fill-rule="evenodd" d="M14 4.5V11h-1V4.5h-2A1.5 1.5 0 0 1 9.5 3V1H4a1 1 0 0 0-1 1v9H2V2a2 2 0 0 1 2-2h5.5L14 4.5Zm-6.839 9.688v-.522a1.54 1.54 0 0 0-.117-.641.861.861 0 0 0-.322-.387.862.862 0 0 0-.469-.129.868.868 0 0 0-.471.13.868.868 0 0 0-.32.386 1.54 1.54 0 0 0-.117.641v.522c0 .256.04.47.117.641a.868.868 0 0 0 .32.387.883.883 0 0 0 .471.126.877.877 0 0 0 .469-.126.861.861 0 0 0 .322-.386 1.55 1.55 0 0 0 .117-.642Zm.803-.516v.513c0 .375-.068.7-.205.973a1.47 1.47 0 0 1-.589.627c-.254.144-.56.216-.917.216a1.86 1.86 0 0 1-.92-.216 1.463 1.463 0 0 1-.589-.627 2.151 2.151 0 0 1-.205-.973v-.513c0-.379.069-.704.205-.975.137-.274.333-.483.59-.627.257-.147.564-.22.92-.22.357 0 .662.073.916.22.256.146.452.356.59.63.136.271.204.595.204.972ZM1 15.925v-3.999h1.459c.406 0 .741.078 1.005.235.264.156.46.382.589.68.13.296.196.655.196 1.074 0 .422-.065.784-.196 1.084-.131.301-.33.53-.595.689-.264.158-.597.237-.999.237H1Zm1.354-3.354H1.79v2.707h.563c.185 0 .346-.028.483-.082a.8.8 0 0 0 .334-.252c.088-.114.153-.254.196-.422a2.3 2.3 0 0 0 .068-.592c0-.3-.04-.552-.118-.753a.89.89 0 0 0-.354-.454c-.158-.102-.361-.152-.61-.152Zm6.756 1.116c0-.248.034-.46.103-.633a.868.868 0 0 1 .301-.398.814.814 0 0 1 .475-.138c.15 0 .283.032.398.097a.7.7 0 0 1 .273.26.85.85 0 0 1 .12.381h.765v-.073a1.33 1.33 0 0 0-.466-.964 1.44 1.44 0 0 0-.49-.272 1.836 1.836 0 0 0-.606-.097c-.355 0-.66.074-.911.223-.25.148-.44.359-.571.633-.131.273-.197.6-.197.978v.498c0 .379.065.704.194.976.13.271.321.48.571.627.25.144.555.216.914.216.293 0 .555-.054.785-.164.23-.11.414-.26.551-.454a1.27 1.27 0 0 0 .226-.674v-.076h-.765a.8.8 0 0 1-.117.364.699.699 0 0 1-.273.248.874.874 0 0 1-.401.088.845.845 0 0 1-.478-.131.834.834 0 0 1-.298-.393 1.7 1.7 0 0 1-.103-.627v-.495Zm5.092-1.76h.894l-1.275 2.006 1.254 1.992h-.908l-.85-1.415h-.035l-.852 1.415h-.862l1.24-2.015-1.228-1.984h.932l.832 1.439h.035l.823-1.439Z" /></symbol><symbol fill="currentColor" class="bi bi-filetype-pdf" viewBox="0 0 16 16" id="filetype-pdf"><path fill-rule="evenodd" d="M14 4.5V14a2 2 0 0 1-2 2h-1v-1h1a1 1 0 0 0 1-1V4.5h-2A1.5 1.5 0 0 1 9.5 3V1H4a1 1 0 0 0-1 1v9H2V2a2 2 0 0 1 2-2h5.5L14 4.5ZM1.6 11.85H0v3.999h.791v-1.342h.803c.287 0 .531-.057.732-.173.203-.117.358-.275.463-.474a1.42 1.42 0 0 0 .161-.677c0-.25-.053-.476-.158-.677a1.176 1.176 0 0 0-.46-.477c-.2-.12-.443-.179-.732-.179Zm.545 1.333a.795.795 0 0 1-.085.38.574.574 0 0 1-.238.241.794.794 0 0 1-.375.082H.788V12.48h.66c.218 0 .389.06.512.181.123.122.185.296.185.522Zm1.217-1.333v3.999h1.46c.401 0 .734-.08.998-.237a1.45 1.45 0 0 0 .595-.689c.13-.3.196-.662.196-1.084 0-.42-.065-.778-.196-1.075a1.426 1.426 0 0 0-.589-.68c-.264-.156-.599-.234-1.005-.234H3.362Zm.791.645h.563c.248 0 .45.05.609.152a.89.89 0 0 1 .354.454c.079.201.118.452.118.753a2.3 2.3 0 0 1-.068.592 1.14 1.14 0 0 1-.196.422.8.8 0 0 1-.334.252 1.298 1.298 0 0 1-.483.082h-.563v-2.707Zm3.743 1.763v1.591h-.79V11.85h2.548v.653H7.896v1.117h1.606v.638H7.896Z" /></symbol><symbol fill="currentColor" class="bi bi-filetype-ppt" viewBox="0 0 16 16" id="filetype-ppt"><path fill-rule="evenodd" d="M14 4.5V14a2 2 0 0 1-2 2h-1v-1h1a1 1 0 0 0 1-1V4.5h-2A1.5 1.5 0 0 1 9.5 3V1H4a1 1 0 0 0-1 1v9H2V2a2 2 0 0 1 2-2h5.5L14 4.5ZM1.6 11.85H0v3.999h.791v-1.342h.803c.287 0 .531-.057.732-.173.203-.117.358-.275.463-.474a1.42 1.42 0 0 0 .161-.677c0-.25-.053-.476-.158-.677a1.176 1.176 0 0 0-.46-.477c-.2-.12-.443-.179-.732-.179Zm.545 1.333a.795.795 0 0 1-.085.38.574.574 0 0 1-.238.241.794.794 0 0 1-.375.082H.788V12.48h.66c.218 0 .389.06.512.181.123.122.185.296.185.522Zm2.817-1.333h-1.6v3.999h.791v-1.342h.803c.287 0 .531-.057.732-.173.203-.117.358-.275.463-.474.108-.201.161-.427.161-.677 0-.25-.052-.476-.158-.677a1.176 1.176 0 0 0-.46-.477c-.2-.12-.443-.179-.732-.179Zm.545 1.333a.795.795 0 0 1-.085.38.574.574 0 0 1-.238.241.793.793 0 0 1-.375.082H4.15V12.48h.66c.218 0 .389.06.512.181.123.122.185.296.185.522Zm2.767-.67v3.336H7.48v-3.337H6.346v-.662h3.065v.662H8.274Z" /></symbol><symbol fill="currentColor" class="bi bi-filetype-pptx" viewBox="0 0 16 16" id="filetype-pptx"><path fill-rule="evenodd" d="M14 4.5V11h-1V4.5h-2A1.5 1.5 0 0 1 9.5 3V1H4a1 1 0 0 0-1 1v9H2V2a2 2 0 0 1 2-2h5.5L14 4.5ZM1.5 11.85h1.6c.289 0 .533.06.732.179.201.117.355.276.46.477.105.201.158.427.158.677 0 .25-.054.476-.16.677-.106.199-.26.357-.464.474a1.452 1.452 0 0 1-.732.173H2.29v1.342H1.5V11.85Zm2.06 1.714a.795.795 0 0 0 .085-.381c0-.226-.062-.4-.185-.521-.123-.122-.294-.182-.513-.182h-.659v1.406h.66a.794.794 0 0 0 .374-.082.574.574 0 0 0 .238-.24Zm1.302-1.714h1.6c.289 0 .533.06.732.179.201.117.355.276.46.477.106.201.158.427.158.677 0 .25-.053.476-.16.677-.106.199-.26.357-.464.474a1.452 1.452 0 0 1-.732.173h-.803v1.342h-.79V11.85Zm2.06 1.714a.795.795 0 0 0 .085-.381c0-.226-.062-.4-.185-.521-.123-.122-.294-.182-.513-.182H5.65v1.406h.66a.793.793 0 0 0 .374-.082.574.574 0 0 0 .238-.24Zm2.852 2.285v-3.337h1.137v-.662H7.846v.662H8.98v3.337h.794Zm3.796-3.999h.893l-1.274 2.007 1.254 1.992h-.908l-.85-1.415h-.035l-.853 1.415h-.861l1.24-2.016-1.228-1.983h.931l.832 1.439h.035l.824-1.439Z" /></symbol><symbol fill="currentColor" class="bi bi-filetype-xls" viewBox="0 0 16 16" id="filetype-xls"><path fill-rule="evenodd" d="M14 4.5V14a2 2 0 0 1-2 2h-1v-1h1a1 1 0 0 0 1-1V4.5h-2A1.5 1.5 0 0 1 9.5 3V1H4a1 1 0 0 0-1 1v9H2V2a2 2 0 0 1 2-2h5.5L14 4.5ZM6.472 15.29a1.176 1.176 0 0 1-.111-.449h.765a.578.578 0 0 0 .254.384c.07.049.154.087.25.114.095.028.202.041.319.041.164 0 .302-.023.413-.07a.559.559 0 0 0 .255-.193.507.507 0 0 0 .085-.29.387.387 0 0 0-.153-.326c-.101-.08-.255-.144-.462-.193l-.619-.143a1.72 1.72 0 0 1-.539-.214 1.001 1.001 0 0 1-.351-.367 1.068 1.068 0 0 1-.123-.524c0-.244.063-.457.19-.639.127-.181.303-.322.527-.422.225-.1.484-.149.777-.149.305 0 .564.05.78.152.216.102.383.239.5.41.12.17.186.359.2.566h-.75a.56.56 0 0 0-.12-.258.625.625 0 0 0-.247-.181.923.923 0 0 0-.369-.068c-.217 0-.388.05-.513.152a.472.472 0 0 0-.184.384c0 .121.048.22.143.3a.97.97 0 0 0 .405.175l.62.143c.217.05.406.12.566.211a1 1 0 0 1 .375.358c.09.148.135.335.135.56 0 .247-.063.466-.188.656a1.216 1.216 0 0 1-.539.439c-.234.105-.52.158-.858.158-.254 0-.476-.03-.665-.09a1.404 1.404 0 0 1-.478-.252 1.13 1.13 0 0 1-.29-.375Zm-2.945-3.358h-.893L1.81 13.37h-.036l-.832-1.438h-.93l1.227 1.983L0 15.931h.861l.853-1.415h.035l.85 1.415h.908L2.253 13.94l1.274-2.007Zm2.727 3.325H4.557v-3.325h-.79v4h2.487v-.675Z" /></symbol><symbol fill="currentColor" class="bi bi-filetype-xlsx" viewBox="0 0 16 16" id="filetype-xlsx"><path fill-rule="evenodd" d="M14 4.5V11h-1V4.5h-2A1.5 1.5 0 0 1 9.5 3V1H4a1 1 0 0 0-1 1v9H2V2a2 2 0 0 1 2-2h5.5L14 4.5ZM7.86 14.841a1.13 1.13 0 0 0 .401.823c.13.108.29.192.479.252.19.061.411.091.665.091.338 0 .624-.053.858-.158.237-.105.416-.252.54-.44a1.17 1.17 0 0 0 .187-.656c0-.224-.045-.41-.135-.56a1.002 1.002 0 0 0-.375-.357 2.028 2.028 0 0 0-.565-.21l-.621-.144a.97.97 0 0 1-.405-.176.37.37 0 0 1-.143-.299c0-.156.061-.284.184-.384.125-.101.296-.152.513-.152.143 0 .266.023.37.068a.624.624 0 0 1 .245.181.56.56 0 0 1 .12.258h.75a1.093 1.093 0 0 0-.199-.566 1.21 1.21 0 0 0-.5-.41 1.813 1.813 0 0 0-.78-.152c-.293 0-.552.05-.777.15-.224.099-.4.24-.527.421-.127.182-.19.395-.19.639 0 .201.04.376.123.524.082.149.199.27.351.367.153.095.332.167.54.213l.618.144c.207.049.36.113.462.193a.387.387 0 0 1 .153.326.512.512 0 0 1-.085.29.558.558 0 0 1-.255.193c-.111.047-.25.07-.413.07-.117 0-.224-.013-.32-.04a.837.837 0 0 1-.249-.115.578.578 0 0 1-.255-.384h-.764Zm-3.726-2.909h.893l-1.274 2.007 1.254 1.992h-.908l-.85-1.415h-.035l-.853 1.415H1.5l1.24-2.016-1.228-1.983h.931l.832 1.438h.036l.823-1.438Zm1.923 3.325h1.697v.674H5.266v-3.999h.791v3.325Zm7.636-3.325h.893l-1.274 2.007 1.254 1.992h-.908l-.85-1.415h-.035l-.853 1.415h-.861l1.24-2.016-1.228-1.983h.931l.832 1.438h.036l.823-1.438Z" /></symbol><symbol viewBox="0 0 26 26" id="flickr"><path d="M23.2 0H2.8C1.2 0 0 1.2 0 2.8v20.4C0 24.8 1.2 26 2.8 26h20.4c1.5 0 2.8-1.2 2.8-2.8V2.8C26 1.2 24.8 0 23.2 0zM8.4 16.7a3.7 3.7 0 1 1 0-7.4c2 0 3.7 1.6 3.7 3.7 0 2-1.7 3.7-3.7 3.7zm9.2 0a3.7 3.7 0 1 1 0-7.4 3.7 3.7 0 1 1 0 7.4z" /></symbol><symbol fill="currentColor" class="bi bi-globe" viewBox="0 0 16 16" id="globe"><path d="M0 8a8 8 0 1 1 16 0A8 8 0 0 1 0 8zm7.5-6.923c-.67.204-1.335.82-1.887 1.855A7.97 7.97 0 0 0 5.145 4H7.5V1.077zM4.09 4a9.267 9.267 0 0 1 .64-1.539 6.7 6.7 0 0 1 .597-.933A7.025 7.025 0 0 0 2.255 4H4.09zm-.582 3.5c.03-.877.138-1.718.312-2.5H1.674a6.958 6.958 0 0 0-.656 2.5h2.49zM4.847 5a12.5 12.5 0 0 0-.338 2.5H7.5V5H4.847zM8.5 5v2.5h2.99a12.495 12.495 0 0 0-.337-2.5H8.5zM4.51 8.5a12.5 12.5 0 0 0 .337 2.5H7.5V8.5H4.51zm3.99 0V11h2.653c.187-.765.306-1.608.338-2.5H8.5zM5.145 12c.138.386.295.744.468 1.068.552 1.035 1.218 1.65 1.887 1.855V12H5.145zm.182 2.472a6.696 6.696 0 0 1-.597-.933A9.268 9.268 0 0 1 4.09 12H2.255a7.024 7.024 0 0 0 3.072 2.472zM3.82 11a13.652 13.652 0 0 1-.312-2.5h-2.49c.062.89.291 1.733.656 2.5H3.82zm6.853 3.472A7.024 7.024 0 0 0 13.745 12H11.91a9.27 9.27 0 0 1-.64 1.539 6.688 6.688 0 0 1-.597.933zM8.5 12v2.923c.67-.204 1.335-.82 1.887-1.855.173-.324.33-.682.468-1.068H8.5zm3.68-1h2.146c.365-.767.594-1.61.656-2.5h-2.49a13.65 13.65 0 0 1-.312 2.5zm2.802-3.5a6.959 6.959 0 0 0-.656-2.5H12.18c.174.782.282 1.623.312 2.5h2.49zM11.27 2.461c.247.464.462.98.64 1.539h1.835a7.024 7.024 0 0 0-3.072-2.472c.218.284.418.598.597.933zM10.855 4a7.966 7.966 0 0 0-.468-1.068C9.835 1.897 9.17 1.282 8.5 1.077V4h2.355z" /></symbol><symbol fill="currentColor" class="bi bi-instagram" viewBox="0 0 16 16" id="instagram"><path d="M8 0C5.829 0 5.556.01 4.703.048 3.85.088 3.269.222 2.76.42a3.917 3.917 0 0 0-1.417.923A3.927 3.927 0 0 0 .42 2.76C.222 3.268.087 3.85.048 4.7.01 5.555 0 5.827 0 8.001c0 2.172.01 2.444.048 3.297.04.852.174 1.433.372 1.942.205.526.478.972.923 1.417.444.445.89.719 1.416.923.51.198 1.09.333 1.942.372C5.555 15.99 5.827 16 8 16s2.444-.01 3.298-.048c.851-.04 1.434-.174 1.943-.372a3.916 3.916 0 0 0 1.416-.923c.445-.445.718-.891.923-1.417.197-.509.332-1.09.372-1.942C15.99 10.445 16 10.173 16 8s-.01-2.445-.048-3.299c-.04-.851-.175-1.433-.372-1.941a3.926 3.926 0 0 0-.923-1.417A3.911 3.911 0 0 0 13.24.42c-.51-.198-1.092-.333-1.943-.372C10.443.01 10.172 0 7.998 0h.003zm-.717 1.442h.718c2.136 0 2.389.007 3.232.046.78.035 1.204.166 1.486.275.373.145.64.319.92.599.28.28.453.546.598.92.11.281.24.705.275 1.485.039.843.047 1.096.047 3.231s-.008 2.389-.047 3.232c-.035.78-.166 1.203-.275 1.485a2.47 2.47 0 0 1-.599.919c-.28.28-.546.453-.92.598-.28.11-.704.24-1.485.276-.843.038-1.096.047-3.232.047s-2.39-.009-3.233-.047c-.78-.036-1.203-.166-1.485-.276a2.478 2.478 0 0 1-.92-.598 2.48 2.48 0 0 1-.6-.92c-.109-.281-.24-.705-.275-1.485-.038-.843-.046-1.096-.046-3.233 0-2.136.008-2.388.046-3.231.036-.78.166-1.204.276-1.486.145-.373.319-.64.599-.92.28-.28.546-.453.92-.598.282-.11.705-.24 1.485-.276.738-.034 1.024-.044 2.515-.045v.002zm4.988 1.328a.96.96 0 1 0 0 1.92.96.96 0 0 0 0-1.92zm-4.27 1.122a4.109 4.109 0 1 0 0 8.217 4.109 4.109 0 0 0 0-8.217zm0 1.441a2.667 2.667 0 1 1 0 5.334 2.667 2.667 0 0 1 0-5.334z" /></symbol><symbol fill="currentColor" class="bi bi-link" viewBox="0 0 16 16" id="link"><path d="M6.354 5.5H4a3 3 0 0 0 0 6h3a3 3 0 0 0 2.83-4H9c-.086 0-.17.01-.25.031A2 2 0 0 1 7 10.5H4a2 2 0 1 1 0-4h1.535c.218-.376.495-.714.82-1z" /><path d="M9 5.5a3 3 0 0 0-2.83 4h1.098A2 2 0 0 1 9 6.5h3a2 2 0 1 1 0 4h-1.535a4.02 4.02 0 0 1-.82 1H12a3 3 0 1 0 0-6H9z" /></symbol><symbol fill="currentColor" class="bi bi-link-45deg" viewBox="0 0 16 16" id="link-45deg"><path d="M4.715 6.542 3.343 7.914a3 3 0 1 0 4.243 4.243l1.828-1.829A3 3 0 0 0 8.586 5.5L8 6.086a1.002 1.002 0 0 0-.154.199 2 2 0 0 1 .861 3.337L6.88 11.45a2 2 0 1 1-2.83-2.83l.793-.792a4.018 4.018 0 0 1-.128-1.287z" /><path d="M6.586 4.672A3 3 0 0 0 7.414 9.5l.775-.776a2 2 0 0 1-.896-3.346L9.12 3.55a2 2 0 1 1 2.83 2.83l-.793.792c.112.42.155.855.128 1.287l1.372-1.372a3 3 0 1 0-4.243-4.243L6.586 4.672z" /></symbol><symbol fill="currentColor" class="bi bi-linkedin" viewBox="0 0 16 16" id="linkedin"><path d="M0 1.146C0 .513.526 0 1.175 0h13.65C15.474 0 16 .513 16 1.146v13.708c0 .633-.526 1.146-1.175 1.146H1.175C.526 16 0 15.487 0 14.854V1.146zm4.943 12.248V6.169H2.542v7.225h2.401zm-1.2-8.212c.837 0 1.358-.554 1.358-1.248-.015-.709-.52-1.248-1.342-1.248-.822 0-1.359.54-1.359 1.248 0 .694.521 1.248 1.327 1.248h.016zm4.908 8.212V9.359c0-.216.016-.432.08-.586.173-.431.568-.878 1.232-.878.869 0 1.216.662 1.216 1.634v3.865h2.401V9.25c0-2.22-1.184-3.252-2.764-3.252-1.274 0-1.845.7-2.165 1.193v.025h-.016a5.54 5.54 0 0 1 .016-.025V6.169h-2.4c.03.678 0 7.225 0 7.225h2.4z" /></symbol><symbol fill="currentColor" class="bi bi-people" viewBox="0 0 16 16" id="people"><path d="M15 14s1 0 1-1-1-4-5-4-5 3-5 4 1 1 1 1h8Zm-7.978-1A.261.261 0 0 1 7 12.996c.001-.264.167-1.03.76-1.72C8.312 10.629 9.282 10 11 10c1.717 0 2.687.63 3.24 1.276.593.69.758 1.457.76 1.72l-.008.002a.274.274 0 0 1-.014.002H7.022ZM11 7a2 2 0 1 0 0-4 2 2 0 0 0 0 4Zm3-2a3 3 0 1 1-6 0 3 3 0 0 1 6 0ZM6.936 9.28a5.88 5.88 0 0 0-1.23-.247A7.35 7.35 0 0 0 5 9c-4 0-5 3-5 4 0 .667.333 1 1 1h4.216A2.238 2.238 0 0 1 5 13c0-1.01.377-2.042 1.09-2.904.243-.294.526-.569.846-.816ZM4.92 10A5.493 5.493 0 0 0 4 13H1c0-.26.164-1.03.76-1.724.545-.636 1.492-1.256 3.16-1.275ZM1.5 5.5a3 3 0 1 1 6 0 3 3 0 0 1-6 0Zm3-2a2 2 0 1 0 0 4 2 2 0 0 0 0-4Z" /></symbol><symbol fill="currentColor" class="bi bi-play-circle" viewBox="0 0 16 16" id="play-circle"><path d="M8 15A7 7 0 1 1 8 1a7 7 0 0 1 0 14zm0 1A8 8 0 1 0 8 0a8 8 0 0 0 0 16z" /><path d="M6.271 5.055a.5.5 0 0 1 .52.038l3.5 2.5a.5.5 0 0 1 0 .814l-3.5 2.5A.5.5 0 0 1 6 10.5v-5a.5.5 0 0 1 .271-.445z" /></symbol><symbol fill="currentColor" class="bi bi-plus-lg" viewBox="0 0 16 16" id="plus-lg"><path fill-rule="evenodd" d="M8 2a.5.5 0 0 1 .5.5v5h5a.5.5 0 0 1 0 1h-5v5a.5.5 0 0 1-1 0v-5h-5a.5.5 0 0 1 0-1h5v-5A.5.5 0 0 1 8 2Z" /></symbol><symbol viewBox="0 0 24 24" id="quote"><path d="M16.953 12.956v.309c0 1.856-1.225 2.888-3.83 2.94V21C19.863 21 24 17.751 24 12.337V3.26H13.123v9.694h3.83Zm-13.123 0v.309c0 1.856-1.226 2.888-3.83 2.94V21c6.74 0 10.877-3.249 10.877-8.663V3.26H0v9.694h3.83Z" /></symbol><symbol fill="currentColor" class="bi bi-search" viewBox="0 0 16 16" id="search"><path d="M11.742 10.344a6.5 6.5 0 1 0-1.397 1.398h-.001c.03.04.062.078.098.115l3.85 3.85a1 1 0 0 0 1.415-1.414l-3.85-3.85a1.007 1.007 0 0 0-.115-.1zM12 6.5a5.5 5.5 0 1 1-11 0 5.5 5.5 0 0 1 11 0z" /></symbol><symbol fill="currentColor" class="bi bi-stack" viewBox="0 0 16 16" id="stack"><path d="m14.12 10.163 1.715.858c.22.11.22.424 0 .534L8.267 15.34a.598.598 0 0 1-.534 0L.165 11.555a.299.299 0 0 1 0-.534l1.716-.858 5.317 2.659c.505.252 1.1.252 1.604 0l5.317-2.66zM7.733.063a.598.598 0 0 1 .534 0l7.568 3.784a.3.3 0 0 1 0 .535L8.267 8.165a.598.598 0 0 1-.534 0L.165 4.382a.299.299 0 0 1 0-.535L7.733.063z" /><path d="m14.12 6.576 1.715.858c.22.11.22.424 0 .534l-7.568 3.784a.598.598 0 0 1-.534 0L.165 7.968a.299.299 0 0 1 0-.534l1.716-.858 5.317 2.659c.505.252 1.1.252 1.604 0l5.317-2.659z" /></symbol><symbol fill="currentColor" class="bi bi-twitter" viewBox="0 0 16 16" id="twitter"><path d="M5.026 15c6.038 0 9.341-5.003 9.341-9.334 0-.14 0-.282-.006-.422A6.685 6.685 0 0 0 16 3.542a6.658 6.658 0 0 1-1.889.518 3.301 3.301 0 0 0 1.447-1.817 6.533 6.533 0 0 1-2.087.793A3.286 3.286 0 0 0 7.875 6.03a9.325 9.325 0 0 1-6.767-3.429 3.289 3.289 0 0 0 1.018 4.382A3.323 3.323 0 0 1 .64 6.575v.045a3.288 3.288 0 0 0 2.632 3.218 3.203 3.203 0 0 1-.865.115 3.23 3.23 0 0 1-.614-.057 3.283 3.283 0 0 0 3.067 2.277A6.588 6.588 0 0 1 .78 13.58a6.32 6.32 0 0 1-.78-.045A9.344 9.344 0 0 0 5.026 15z" /></symbol><symbol fill="currentColor" class="bi bi-x-lg" viewBox="0 0 16 16" id="x-lg"><path d="M2.146 2.854a.5.5 0 1 1 .708-.708L8 7.293l5.146-5.147a.5.5 0 0 1 .708.708L8.707 8l5.147 5.146a.5.5 0 0 1-.708.708L8 8.707l-5.146 5.147a.5.5 0 0 1-.708-.708L7.293 8 2.146 2.854Z" /></symbol><symbol fill="currentColor" class="bi bi-youtube" viewBox="0 0 16 16" id="youtube"><path d="M8.051 1.999h.089c.822.003 4.987.033 6.11.335a2.01 2.01 0 0 1 1.415 1.42c.101.38.172.883.22 1.402l.01.104.022.26.008.104c.065.914.073 1.77.074 1.957v.075c-.001.194-.01 1.108-.082 2.06l-.008.105-.009.104c-.05.572-.124 1.14-.235 1.558a2.007 2.007 0 0 1-1.415 1.42c-1.16.312-5.569.334-6.18.335h-.142c-.309 0-1.587-.006-2.927-.052l-.17-.006-.087-.004-.171-.007-.171-.007c-1.11-.049-2.167-.128-2.654-.26a2.007 2.007 0 0 1-1.415-1.419c-.111-.417-.185-.986-.235-1.558L.09 9.82l-.008-.104A31.4 31.4 0 0 1 0 7.68v-.123c.002-.215.01-.958.064-1.778l.007-.103.003-.052.008-.104.022-.26.01-.104c.048-.519.119-1.023.22-1.402a2.007 2.007 0 0 1 1.415-1.42c.487-.13 1.544-.21 2.654-.26l.17-.007.172-.006.086-.003.171-.007A99.788 99.788 0 0 1 7.858 2h.193zM6.4 5.209v4.818l4.157-2.408L6.4 5.209z" /></symbol></defs></svg>