<svg xmlns="http://www.w3.org/2000/svg" xmlns:xlink="http://www.w3.org/1999/xlink"><defs><symbol fill="none" viewBox="0 0 88 80" id="sdg-1"><path d="M88 0H0v80h88V0Z" fill="#E2071F" /><path d="M69.162 28.243c0-1.24 1.099-2.243 2.453-2.243 1.355 0 2.448 1.004 2.448 2.243 0 1.24-1.097 2.242-2.448 2.242-1.35 0-2.453-1.004-2.453-2.242ZM74.475 31.35c1.663.137 2.968 1.418 2.968 2.978v6.215c0 .477-.425.87-.948.87-.523 0-.953-.39-.953-.87v-5.338c0-.2-.063-.47-.463-.47-.277 0-.334.268-.344.439V51.17c0 .687-.61 1.25-1.364 1.25-.755 0-1.369-.561-1.369-1.25V41.95c-.004-.1-.041-.366-.388-.366-.348 0-.39.265-.394.366v9.219c0 .687-.608 1.25-1.364 1.25-.756 0-1.366-.561-1.366-1.25V35.174c-.01-.17-.07-.44-.343-.44-.402 0-.463.271-.463.471v5.338c0 .477-.426.87-.952.87-.527 0-.949-.39-.949-.87v-6.215c0-1.56 1.305-2.84 2.972-2.978.054-.006.115-.014.18-.014h5.358c.071 0 .129.008.186.014M54.58 29.421c0-1.172-1.037-2.124-2.32-2.124s-2.322.952-2.322 2.124c0 1.172 1.039 2.123 2.322 2.123 1.283 0 2.32-.95 2.32-2.123ZM47.581 34.228l-1.93 5.744s-.345 1.054.633 1.317c.972.263 1.267-.764 1.267-.764l1.557-4.796s.085-.368.388-.289c.303.08.19.473.19.473l-2.709 8.985h2.519v6.435c0 .61.542 1.105 1.212 1.105.669 0 1.207-.495 1.207-1.105v-6.435h.687v6.435c0 .61.539 1.105 1.21 1.105.671 0 1.212-.495 1.212-1.105v-6.435h2.518l-2.706-8.985s-.115-.394.188-.473c.303-.08.388.29.388.29l1.556 4.795s.297 1.027 1.267.764c.98-.263.634-1.317.634-1.317l-1.93-5.744s-.69-1.66-2.218-1.66H49.8c-1.527 0-2.218 1.66-2.218 1.66M40.676 29.421c0-1.172-1.037-2.124-2.32-2.124s-2.323.952-2.323 2.124c0 1.172 1.038 2.123 2.323 2.123s2.32-.95 2.32-2.123ZM33.677 34.228l-1.929 5.744s-.344 1.054.632 1.317c.972.263 1.267-.764 1.267-.764l1.556-4.796s.086-.368.389-.289c.305.08.19.473.19.473l-2.709 8.985h2.519v6.435c0 .61.544 1.105 1.211 1.105.668 0 1.208-.495 1.208-1.105v-6.435h.687v6.435c0 .61.539 1.105 1.21 1.105.671 0 1.21-.495 1.21-1.105v-6.435h2.518l-2.706-8.985s-.115-.394.186-.473c.303-.08.388.29.388.29l1.554 4.795s.297 1.027 1.267.764c.978-.263.634-1.317.634-1.317l-1.93-5.744s-.688-1.66-2.216-1.66h-4.92c-1.527 0-2.22 1.66-2.22 1.66M62.378 41.301c1.069 0 1.932-.79 1.932-1.768s-.863-1.766-1.932-1.766c-1.07 0-1.933.788-1.933 1.766s.864 1.768 1.933 1.768ZM57.743 46.79c-.095.207-.173.646.28.836.533.224.828-.247.828-.247l1.052-3.063s.182-.206.182.006v7.21h.004c0 .504.441.908.992.908.55 0 .992-.404.992-.907v-2.845s-.058-.402.297-.402c.354 0 .299.402.299.402v2.845c0 .503.445.907.994.907.548 0 .994-.404.994-.907v-7.211c0-.212.122-.062.122-.062l.824 2.097s.357.937.467.978c.373.143.802-.02.959-.362a.614.614 0 0 0-.08-.645l.008-.006c-.023-.068-1.231-2.774-1.372-3.155-.435-1.164-1.23-1.154-1.994-1.172-.764-.015-1.221 0-1.221 0s-.49-.017-1.497.01c-1.006.03-1.325.501-2.435 3.115-.159.376-.695 1.594-.703 1.667h.008v.004ZM19.94 28.243c0-1.24-1.101-2.243-2.454-2.243-1.352 0-2.449 1.004-2.449 2.243 0 1.24 1.097 2.242 2.45 2.242 1.352 0 2.453-1.004 2.453-2.242ZM14.622 31.35c-1.663.137-2.968 1.418-2.968 2.978v6.215c0 .477.426.87.95.87.525 0 .951-.39.951-.87v-5.338c0-.2.063-.47.463-.47.276 0 .335.268.347.439V51.17c0 .687.608 1.25 1.364 1.25.756 0 1.366-.561 1.366-1.25V41.95c.006-.1.042-.366.39-.366.349 0 .39.265.394.366v9.219c0 .687.61 1.25 1.364 1.25.755 0 1.367-.561 1.367-1.25V35.174c.008-.17.071-.44.344-.44.402 0 .464.271.464.471v5.338c0 .477.425.87.952.87.527 0 .95-.39.95-.87v-6.215c0-1.56-1.305-2.84-2.97-2.978-.055-.006-.115-.014-.18-.014h-5.358c-.07 0-.128.008-.186.014" fill="#fff" /><path d="M12.788 41.167 10 52.277" stroke="#fff" stroke-width="1.31" stroke-miterlimit="10" stroke-linecap="round" /><path d="M24.484 40.376a.726.726 0 0 0-.596-.303c-.388 0-.704.29-.704.642 0 .103.069.283.069.283L25.2 44.22s.119.222.119.426v6.922h.004c0 .483.426.871.952.871.527 0 .95-.388.95-.871v-2.732s-.053-.387.288-.387c.34 0 .287.387.287.387v2.732c0 .483.428.871.954.871.527 0 .955-.388.955-.871v-6.922c0-.204.116-.426.116-.426l1.802-2.976s.22-.427.22-.53c0-.353-.315-.642-.705-.642a.71.71 0 0 0-.596.303l-.008-.004c-.057.044-.958 1.513-1.255 1.786-.315.291-.596.258-.596.258h-2.342s-.284.031-.598-.258c-.301-.271-1.2-1.74-1.258-1.786l-.006.004Z" fill="#fff" /><path d="M27.512 41.301c1.07 0 1.933-.79 1.933-1.768s-.863-1.766-1.933-1.766c-1.069 0-1.932.788-1.932 1.766s.863 1.768 1.933 1.768ZM27.514 43.782l2.184 1.457 1.038 3.494h-6.447l1.04-3.494 2.185-1.457Z" fill="#fff" /></symbol><symbol fill="none" viewBox="0 0 88 80" id="sdg-10"><path d="M88 0H0v80h88V0Z" fill="#DD0979" /><path d="M52.049 42.568h-15.66a.172.172 0 0 0-.17.174v4.302c0 .098.076.176.17.176h15.66a.173.173 0 0 0 .172-.176v-4.302a.172.172 0 0 0-.172-.174ZM52.049 33.412h-15.66a.172.172 0 0 0-.17.173v4.303c0 .097.076.175.17.175h15.66a.173.173 0 0 0 .172-.175v-4.303a.172.172 0 0 0-.172-.173ZM51.828 26.907l-7.517-6.872a.137.137 0 0 0-.183 0l-7.517 6.872c-.082.074-.024.203.091.203h15.033c.115 0 .173-.129.092-.203h.002ZM58.884 47.272l7.518-6.872a.111.111 0 0 0 0-.168l-7.518-6.872c-.082-.074-.222-.022-.222.084v13.744c0 .105.14.158.222.084ZM36.608 53.723l7.518 6.872c.05.047.133.047.183 0l7.518-6.872c.081-.074.023-.203-.092-.203H36.702c-.115 0-.173.13-.091.203h-.002ZM29.555 33.358l-7.517 6.873a.111.111 0 0 0 0 .167l7.517 6.872c.082.074.223.022.223-.084V33.442c0-.105-.14-.158-.223-.084Z" fill="#fff" /></symbol><symbol fill="none" viewBox="0 0 88 80" id="sdg-11"><path d="M88 0H0v80h88V0Z" fill="#F59D08" /><path d="M14.386 49.252h13.119c.177 0 .321-.133.321-.295a.28.28 0 0 0-.084-.195l-.017-.017-6.527-7.72-.064-.065a.338.338 0 0 0-.449-.02l-.039.042-.06.062-6.368 7.638-.097.11a.271.271 0 0 0-.055.163c0 .162.145.295.322.295M27.465 50.34H14.322c-.178 0-.322.132-.322.294v9.405c0 .162.144.294.322.294h4.23v-5.917c0-.163.143-.294.322-.294H22.8c.177 0 .322.13.322.294v5.917h4.343c.178 0 .322-.132.322-.294v-9.405c0-.162-.144-.294-.322-.294ZM71.712 51.727c0 .157-.142.283-.318.283H67.51c-.178 0-.318-.127-.318-.282v-2.16c0-.157.142-.283.318-.283h3.885c.178 0 .318.127.318.282v2.16Zm0 3.991c0 .158-.142.285-.318.285H67.51c-.178 0-.318-.127-.318-.285V53.56c0-.158.142-.283.318-.283h3.885c.178 0 .318.127.318.283v2.158Zm-5.94-3.99c0 .155-.143.282-.318.282h-3.885c-.178 0-.32-.127-.32-.282v-2.16c0-.157.142-.283.32-.283h3.885c.175 0 .318.127.318.282v2.16Zm0 3.99c0 .158-.143.285-.318.285h-3.885c-.178 0-.32-.127-.32-.285V53.56c0-.158.142-.283.32-.283h3.885c.175 0 .318.127.318.283v2.158Zm7.118-7.84H59.88c-.175 0-.318.124-.318.282V60.17c0 .156.143.283.318.283h13.01c.177 0 .317-.127.317-.283V48.16c0-.158-.142-.283-.317-.283ZM40.794 28.535c0 .084-.076.152-.168.152h-2.914c-.094 0-.168-.068-.168-.152v-2.971c0-.086.074-.152.168-.152h2.914c.094 0 .168.068.168.152v2.971Zm0 6.82c0 .083-.076.152-.168.152h-2.914c-.094 0-.168-.069-.168-.152v-2.972c0-.083.074-.15.168-.15h2.914c.094 0 .168.067.168.15v2.971Zm0 6.82c0 .085-.076.153-.168.153h-2.914c-.094 0-.168-.068-.168-.152v-2.971c0-.084.074-.152.168-.152h2.914c.094 0 .168.068.168.152v2.97Zm0 6.82c0 .086-.076.153-.168.153h-2.914c-.094 0-.168-.067-.168-.153v-2.969c0-.086.074-.152.168-.152h2.914c.094 0 .168.066.168.152v2.97Zm0 6.822c0 .084-.076.152-.168.152h-2.914c-.094 0-.168-.068-.168-.152v-2.97c0-.083.074-.151.168-.151h2.914c.094 0 .168.068.168.152v2.969Zm-5.716-27.282c0 .084-.074.152-.168.152h-2.914c-.092 0-.168-.068-.168-.152v-2.971c0-.086.076-.152.168-.152h2.914c.092 0 .168.068.168.152v2.971Zm0 6.82c0 .083-.074.152-.168.152h-2.914c-.092 0-.168-.069-.168-.152v-2.972c0-.083.076-.15.168-.15h2.914c.092 0 .168.067.168.15v2.971Zm0 6.82c0 .085-.074.153-.168.153h-2.914c-.092 0-.168-.068-.168-.152v-2.971c0-.084.076-.152.168-.152h2.914c.092 0 .168.068.168.152v2.97Zm0 6.82c0 .086-.074.153-.168.153h-2.914c-.092 0-.168-.067-.168-.153v-2.969c0-.086.076-.152.168-.152h2.914c.092 0 .168.066.168.152v2.97Zm0 6.822c0 .084-.074.152-.168.152h-2.914c-.092 0-.168-.068-.168-.152v-2.97c0-.083.076-.151.168-.151h2.914c.092 0 .168.068.168.152v2.969ZM42.652 20h-12.73c-.17 0-.313.127-.313.285v39.78c0 .156.14.285.312.285h12.73c.17 0 .315-.13.315-.285v-39.78c0-.158-.143-.285-.314-.285ZM73.194 46.67c0 .135-.117.24-.262.24H59.84c-.144 0-.26-.107-.26-.24v-2.394c0-.132.116-.24.26-.24h13.093c.145 0 .262.108.262.24v2.394ZM56.58 39.666c0 .158-.14.284-.312.284h-3.794c-.174 0-.314-.126-.314-.284v-2.172c0-.158.14-.285.314-.285h3.794c.17 0 .312.127.312.285v2.172Zm0 4.014c0 .156-.14.282-.312.282h-3.794c-.174 0-.314-.126-.314-.282v-2.172c0-.158.14-.285.314-.285h3.794c.17 0 .312.127.312.285v2.172Zm0 4.014c0 .156-.14.282-.312.282h-3.794c-.174 0-.314-.128-.314-.282v-2.172c0-.158.14-.285.314-.285h3.794c.17 0 .312.127.312.285v2.172Zm0 4.012c0 .158-.14.285-.312.285h-3.794c-.174 0-.314-.127-.314-.285v-2.172c0-.158.14-.284.314-.284h3.794c.17 0 .312.126.312.284v2.172Zm0 4.012c0 .158-.14.285-.312.285h-3.794c-.174 0-.314-.127-.314-.285v-2.172c0-.156.14-.282.314-.282h3.794c.17 0 .312.126.312.282v2.172Zm-5.79-16.817v4.785c0 .157-.14.284-.312.284h-3.794c-.174 0-.314-.127-.314-.284v-.603c0-.037.01-.074.023-.107a.23.23 0 0 1 .02-.033.265.265 0 0 1 .027-.037l.035-.047c.486-.636 2.673-3.1 3.593-4.131l.092-.101a.376.376 0 0 1 .28-.121.35.35 0 0 1 .348.265v.129l.002.001Zm-.01 8.793c0 .156-.139.282-.312.282h-3.794c-.173 0-.312-.128-.312-.282v-2.172c0-.158.139-.285.312-.285h3.794c.173 0 .312.127.312.285v2.172Zm0 4.012c0 .158-.139.285-.312.285h-3.794c-.173 0-.312-.127-.312-.285v-2.172c0-.158.139-.284.312-.284h3.794c.173 0 .312.126.312.284v2.172Zm0 4.012c0 .158-.139.285-.312.285h-3.794c-.173 0-.312-.127-.312-.285v-2.172c0-.156.139-.282.312-.282h3.794c.173 0 .312.126.312.282v2.172Zm1.98-20.324.09-.103a252.189 252.189 0 0 1 3.002-3.418l.092-.101a.376.376 0 0 1 .28-.12c.174 0 .315.114.348.264v3.671c0 .178-.154.32-.345.328l-.016.002-.015-.002h-3.127l-.016.002-.016-.002c-.19-.008-.345-.15-.345-.328 0-.074.026-.14.07-.197m5.268-7.882a.333.333 0 0 0-.32-.222.354.354 0 0 0-.18.055c-.009.006-.017.008-.024.013l-.108.125-12.512 14.513-.058.07a.322.322 0 0 0-.11.226V60.12c0 .156.141.283.313.283h12.718c.174 0 .312-.127.312-.283V27.631a.267.267 0 0 0-.029-.119" fill="#fff" /></symbol><symbol fill="none" viewBox="0 0 88 80" id="sdg-12"><path d="M88 0H0v80h88V0Z" fill="#D28D0E" /><path d="M66.936 29.768c-3.853-2.782-8.955-2.838-10.822-2.43l-.217.046c-2.158.466-5.585 1.238-9.6 5.79-.02.026-.044.051-.065.078l-.051.057a.293.293 0 0 0-.066.177c0 .055.015.106.043.152l.093.14c.503.77 1.139 1.763 1.677 2.675l.015.028a.347.347 0 0 0 .306.171.353.353 0 0 0 .238-.087c.026-.03.05-.063.072-.094 3.562-4.503 6.364-5.125 8.257-5.533l.226-.048c.982-.217 4.722-.203 7.42 1.744 2.105 1.52 3.175 3.94 3.175 7.19 0 5.453-2.9 7.586-5.334 8.414-3.77 1.289-7.386-.434-7.412-.446l-.161-.072c-2.07-.823-5.163-2.533-8.075-7.882-5.872-10.781-10.783-11.797-14.031-12.47l-.174-.034c-1.48-.307-6.618-.525-10.658 2.423-2.111 1.54-4.624 4.532-4.624 10.046 0 3.359.755 5.577 2.694 7.91.425.533 4.775 5.639 13.179 4.167 1.345-.236 3.168-.823 5.172-2.197l1.85 1.526c.121.1.314.092.425-.02a.244.244 0 0 0 .074-.182v-.024l1.336-7.505v-.084a.255.255 0 0 0-.098-.2.294.294 0 0 0-.195-.067l-.056.005-.088.008-7.864 2.012-.143.022a.297.297 0 0 0-.15.08.257.257 0 0 0 .022.39l.091.078 1.763 1.454c-1.139.674-2.13.982-2.888 1.117-6.082 1.06-9.084-2.581-9.198-2.724l-.042-.052c-1.414-1.696-1.891-3.139-1.891-5.714 0-3.26 1.05-5.681 3.12-7.192 2.63-1.918 6.259-1.93 7.282-1.718l.178.037c2.663.552 6.31 1.307 11.336 10.536 2.61 4.792 5.88 7.925 9.994 9.576.524.243 3.021 1.327 6.263 1.327 1.357 0 2.84-.189 4.363-.707 2.385-.813 7.933-3.595 7.933-11.838 0-5.51-2.552-8.51-4.692-10.055" fill="#fff" /><path d="M67.076 29.648c-3.876-2.815-9.01-2.874-10.89-2.462l-.219.046c-2.172.472-5.62 1.252-9.658 5.86l-.066.079-.05.056a.294.294 0 0 0-.067.18.3.3 0 0 0 .043.154l.093.142c.507.78 1.147 1.784 1.687 2.708a.346.346 0 0 0 .324.203.355.355 0 0 0 .237-.09c.026-.031.05-.063.074-.094 3.584-4.558 6.403-5.188 8.307-5.599l.228-.049c.989-.218 4.751-.204 7.467 1.767 2.12 1.538 3.195 3.986 3.195 7.277 0 5.52-2.918 7.678-5.367 8.516-3.794 1.304-7.431-.439-7.457-.453l-.163-.072c-2.084-.832-5.194-2.563-8.124-7.977C40.763 28.928 35.82 27.9 32.55 27.219l-.175-.036c-1.49-.31-6.66-.53-10.722 2.455C19.53 31.196 17 34.225 17 39.805c0 3.4.758 5.646 2.712 8.007.429.538 4.803 5.708 13.26 4.216 1.353-.237 3.188-.832 5.206-2.222l1.861 1.544c.121.101.316.093.427-.02a.248.248 0 0 0 .075-.185v-.023l1.343-7.597v-.084a.26.26 0 0 0-.1-.203.296.296 0 0 0-.197-.068l-.056.006-.088.007-7.913 2.038-.144.021a.279.279 0 0 0-.15.082.262.262 0 0 0 .021.396l.094.078 1.772 1.472c-1.145.682-2.143.994-2.905 1.13-6.12 1.075-9.141-2.612-9.256-2.756l-.043-.055c-1.422-1.718-1.903-3.176-1.903-5.782 0-3.299 1.057-5.75 3.14-7.28 2.646-1.942 6.298-1.953 7.327-1.737l.177.037c2.68.558 6.35 1.322 11.407 10.664 2.626 4.85 5.915 8.02 10.056 9.693.526.248 3.04 1.344 6.303 1.344 1.364 0 2.858-.192 4.39-.716 2.4-.823 7.981-3.638 7.981-11.982 0-5.578-2.567-8.613-4.721-10.176" stroke="#fff" stroke-width=".73" stroke-miterlimit="10" /></symbol><symbol fill="none" viewBox="0 0 88 80" id="sdg-13"><path d="M88 0H0v80h88V0Z" fill="#4A7634" /><path d="M57.47 42.616c-.36-.09-1.87-2-.676-3.258.2-.206-.401-.815-.237-.826.653-.047 1.002.323 1.173.86a11.366 11.366 0 0 1-.257 3.225m-3.687 6.212a2.506 2.506 0 0 1-.423-.142c-.735-.341-.647.205-1.008.084-.364-.123.408-.89-.678-.242-1.08.647-.788-.1-1.26-1.195-.475-1.096.542-2.347 1.392-2.63 1.17-.388 1.895-.466 2.443-.589 1.616-.368 1.96-1.246 2.252-.711.056.099.11.194.158.284.093.16.203.484.208.801a12.27 12.27 0 0 1-3.086 4.342m-9.492 3.581c-1.316 0-2.583-.175-3.782-.495a.484.484 0 0 1-.164-.602c.417-.992 1.657-1.382 2.636-1.468 2.183-.195 5.051 1.294 5.507 1.054.459-.24 1.38-1.337 2.734-1.29.924.033.916.173 1.226.28-2.264 1.58-5.09 2.52-8.159 2.52m-1.83-8.02c-.186.276-.69 2.346-1.032 2.105-.341-.242.139-2.4.236-2.564.532-.891 1.68-.848.795.458Zm5.495-2.444c-.265.217-.945.137-1.287-.105-.337-.24.215-.64.418-.655.452-.037 1.132.542.87.76Zm5.94.022c-.144-.049-.273-.176-.384-.478-.109-.302.168-.474.441-.353.277.129.634.505.634.706 0 .2-.544.177-.693.125m.572.378c.452-.033 1.132.54.865.76-.265.219-.943.139-1.283-.105-.339-.242.215-.64.418-.655Zm-14.439 4.907c-.26.94-.567 1.279-.826 1.577-.26.3-1.225.682-1.835.641-.612-.04-.698-1.536-.698-2.304 0-.265-.411.52-.625-1.078-.137-1.024-.856.107-.907-.577-.05-.68-.41-.546-.788-.97-.374-.426-.844.04-1.368.257-.523.212-.308.323-1.049.11a.342.342 0 0 1-.047-.017 11.372 11.372 0 0 1-.99-6.018.826.826 0 0 1 .084-.115c.711-.77.696-.95.696-.95l.787-.25s1.258.178 2.205.504c.78.267 2.01.873 2.724.606.516-.195.92-.452.871-.846-.058-.493-.483-.61-.998-.279-.191.123-.595-.745-.912-.7-.318.043.392 1.018.122 1.059-.269.043-.81-1.016-.904-1.187-.092-.17-.509-.595-.885-.271-.794.69-2.082.647-2.342.824-.787.54-.996-.177-.978-.614.03-.1.064-.2.1-.298.256-.26 1.18-.345 1.496-.152.35.212.599-.055.733-.183.139-.127.09-.332.002-.501-.087-.172.174-.297.355-.34.181-.044.782-.427 1.02-.555.241-.127 1.485-.265 2.043-.01a1.15 1.15 0 0 0 1.343-.247c.343-.373.782-.657.977-.743.195-.084-.48-.66-1.035-.032-.558.626-.84.683-1.102.683-.261 0-1.815-.355-2.006-.803-.189-.449.486-.784 1.059-1.04.573-.249 2.142-.245 2.544-.329.815-.164 1.858-.538 2.382-.21.523.321-2.193.886-1.3 1.327.318.16 1.752-.754 2.246-.988 1.158-.546-1.123-.726-.827-1.837.335-1.253-2.796-.768-4.357-.663a14.319 14.319 0 0 1 7.248-1.94c6.35 0 11.668 4.022 13.087 9.43.01.268-.037.46-.066.57-.12.444-1.041.824-1.575.11-.137-.178-.714-.678-.694.174.017.854.906.94.047 1.453-.86.51-1.018.388-1.416.516-.395.13-.781 1.008-.686 1.476.096.47 1.324 1.753.413 1.7-.212-.013-1.82-1.02-2.088-1.665-.28-.68-.584-1.345-.803-1.858-.22-.51-.787-.641-1.267-.34-.478.3.135.598-.21 1.24-.344.639-.59 1.21-1.096.681-1.314-1.376-3.223-.697-3.523-2.228-.162-.83-.944-.75-1.597-1.22-.657-.468-1.023-.722-1.132-.384-.098.296 2.056 1.858 2.21 2.26.229.594-.645 1.118-1.284 1.259-.638.14-.919-.328-1.544-.926-.626-.597-.901-1.024-.944-.554-.062.676.595 1.67 1.234 2.043.544.316 1.154.458.979.97-.178.514-.004.223-.614.775-.61.556-.727.733-.683 1.5.045.767-.175.812-.306 1.45-.13.639-.434.085-.698 1.023m-7.23-13.56c.03-.034.058-.061.07-.075.243-.254.727-.308 1.06-.355.336-.052.782.102.837.306.056.203-.84.575-1.004.714-.464.392-1.194 1.189-1.619 1.275a.544.544 0 0 1-.347-.033 11.91 11.91 0 0 1 1.002-1.831m.69-1.256c.174-.233.753-.9.823-.984.149-.175.445-.21.651-.244.205-.037.478.07.511.21.035.143-.08.689-.181.783-.283.269-1.021.647-1.427.588-.314-.044-.437-.267-.378-.35m42.786 7.271C73.976 36.763 63.582 25 44.262 25s-29.71 11.764-32.01 14.71l-.252.327c.068.095.152.203.251.331 2.3 2.946 12.692 14.71 32.012 14.71s29.71-11.764 32.01-14.71c.1-.127.182-.236.249-.331a7.2 7.2 0 0 0-.25-.328Z" fill="#fff" /></symbol><symbol fill="none" viewBox="0 0 88 80" id="sdg-14"><path d="M88 0H0v80h88V0Z" fill="#0076B8" /><path d="M54.523 48.76c-1.603 0-2.901-1.19-2.901-2.654s1.298-2.65 2.9-2.65c1.603 0 2.905 1.186 2.905 2.65s-1.298 2.653-2.904 2.653Zm12.6-1.237c-1.098-1.355-8.187-9.619-18.127-9.619-8.631 0-17.864 7.157-17.864 7.157s-3.468-6.49-10.563-7.114c-.04 0-.085-.008-.132-.008h-.043c-.148.008-.287.139-.271.258.02.113.111.238.111.238.914 1.388 3.248 5.337 3.248 9.283 0 3.946-2.347 7.92-3.254 9.3l-.062.087a.238.238 0 0 0-.045.137c0 .136.117.243.261.255l.076-.006c.024 0 .05 0 .074-.006C27.65 56.88 31.13 50.37 31.13 50.37s9.233 7.158 17.864 7.158c9.938 0 17.029-8.264 18.126-9.617l.076-.093c.012-.032.024-.063.024-.1a.234.234 0 0 0-.024-.1 3.966 3.966 0 0 0-.076-.093M30.479 30.496a.334.334 0 0 1 .076-.072.313.313 0 0 1 .156-.049.296.296 0 0 1 .208.084c5.418 4.722 11.103.895 12.284 0l.115-.101a.325.325 0 0 1 .108-.016c.04 0 .08.004.115.016l.115.101c1.181.895 6.864 4.722 12.284 0 0-.004.006-.006.01-.012a.286.286 0 0 1 .348-.023.315.315 0 0 1 .08.072c1.051.946 5.588 4.517 10.391.702a.243.243 0 0 0 .084-.183v-1.813c0-.145-.126-.26-.282-.26-.022 0-.04.008-.06.012l-.145.066c-1.474.677-6.053 2.28-10.206-1.308a5.52 5.52 0 0 1-.12-.105.254.254 0 0 0-.207-.006.24.24 0 0 0-.145.098c-1.238.861-6.92 4.38-11.982.064l-.074-.068a.305.305 0 0 0-.204-.073.307.307 0 0 0-.2.073l-.077.068c-5.06 4.316-10.748.797-11.984-.065a.236.236 0 0 0-.14-.097.257.257 0 0 0-.21.006c-.04.037-.083.07-.124.105-4.154 3.59-8.728 1.985-10.206 1.308l-.146-.066c-.021-.004-.037-.012-.054-.012-.158 0-.287.115-.287.26v1.813c0 .076.031.136.082.183 4.798 3.815 9.342.242 10.393-.702M20.345 22.37c-.021-.003-.037-.011-.054-.011-.158 0-.285.117-.285.263v1.81c0 .075.031.142.084.186 4.797 3.812 9.34.24 10.393-.703a.249.249 0 0 1 .076-.075.306.306 0 0 1 .158-.046.285.285 0 0 1 .206.082c5.42 4.73 11.103.898 12.284 0l.117-.098a.281.281 0 0 1 .108-.02c.04 0 .08.006.113.02l.116.098c1.182.898 6.865 4.73 12.285 0 0-.002.007-.006.01-.012a.296.296 0 0 1 .43.05c1.05.944 5.59 4.516 10.391.704a.254.254 0 0 0 .082-.187v-1.809c0-.146-.125-.263-.28-.263-.022 0-.04.006-.061.011a2.02 2.02 0 0 1-.144.069c-1.476.676-6.052 2.283-10.206-1.31-.04-.034-.08-.067-.121-.106a.341.341 0 0 0-.121-.023c-.03 0-.06.008-.086.012a.31.31 0 0 0-.144.103c-1.238.864-6.92 4.38-11.982.064l-.074-.066a.33.33 0 0 0-.205-.078.313.313 0 0 0-.197.078l-.078.066c-5.059 4.317-10.747.8-11.983-.064a.322.322 0 0 0-.14-.103c-.03-.004-.06-.012-.09-.012-.041 0-.08.01-.12.023-.036.04-.08.073-.12.106-4.155 3.593-8.728 1.986-10.206 1.31-.053-.024-.101-.045-.146-.069" fill="#fff" /></symbol><symbol fill="none" viewBox="0 0 88 80" id="sdg-15"><path d="M88 0H0v80h88V0Z" fill="#3EA635" /><path d="M37.321 43.227c.107 0 .193.08.193.175v5.806c0 .1-.086.177-.193.177h-2.57c-.107 0-.192-.078-.192-.177v-5.806c0-.098.085-.175.193-.175h2.57ZM65.54 51.879H23.194c-.105 0-.193.084-.193.181v2.367c0 .096.088.173.193.173h42.348c.103 0 .195-.078.195-.173V52.06c0-.1-.09-.181-.195-.181ZM65.54 56.581H23.194c-.105 0-.193.078-.193.174v2.375c0 .095.088.175.193.175h42.348c.103 0 .195-.08.195-.175v-2.375c0-.096-.09-.174-.195-.174ZM57.483 36.8c-.53-.379-1.942-1.262-3.663-1.262-1.23 0-2.377.443-3.4 1.322a.32.32 0 0 0-.113.244v.21c0 .103.037.2.12.265.092.065.19.088.299.065a.597.597 0 0 0 .292-.142c.222-.137.829-.324 1.696-.324.868 0 2.66.22 4.363 1.672l.04.032c.095.09.227.14.368.14.14 0 .27-.05.358-.137l.036-.033c1.713-1.454 3.472-1.674 4.369-1.674.896 0 1.477.187 1.7.323.06.055.134.1.233.13.038.01.147.032.248.009.156-.041.267-.17.267-.32v-.187a.322.322 0 0 0-.113-.24c-1.033-.9-2.191-1.357-3.443-1.357-1.706 0-3.111.87-3.655 1.263M54.854 21.369a.332.332 0 0 0-.185.204l-.043.129a.307.307 0 0 0 .056.29.359.359 0 0 0 .262.13c.02.003.039.007.052.003a.487.487 0 0 0 .205-.049c.037-.008.115-.025.257-.025.19 0 1.897.052 3.026 1.807l.014.025a.437.437 0 0 0 .27.2.476.476 0 0 0 .347-.03l.028-.012a4.537 4.537 0 0 1 1.889-.427c1.07 0 1.768.4 1.932.566a.458.458 0 0 0 .142.144c.035.02.1.049.139.06.02.004.04.006.062.008a.39.39 0 0 0 .207-.037.333.333 0 0 0 .18-.199l.034-.115a.3.3 0 0 0-.033-.26c-.823-1.305-2.016-1.578-2.872-1.578a4.93 4.93 0 0 0-1.524.261C58.91 21.987 57.93 21 56.443 21c-.523 0-1.057.123-1.587.369M45.907 27.325l.012.173a.32.32 0 0 0 .17.261.382.382 0 0 0 .284.04.482.482 0 0 0 .246-.14c.179-.12.76-.336 1.614-.336.854 0 2.074.2 3.347 1.158l.03.027a.53.53 0 0 0 .327.113h.031a.513.513 0 0 0 .331-.146l.03-.03c1.411-1.366 2.932-1.569 3.712-1.569.555 0 .95.106 1.103.185a.58.58 0 0 0 .22.106.437.437 0 0 0 .244-.01.328.328 0 0 0 .24-.333l-.01-.152a.321.321 0 0 0-.127-.23c-.842-.648-1.752-.975-2.708-.975-1.489 0-2.678.805-3.17 1.199-.45-.281-1.544-.858-2.824-.858-1.127 0-2.137.429-3.005 1.27a.319.319 0 0 0-.097.247ZM24.475 30.434c0-2.318 2.056-4.198 4.59-4.198.1 0 .198.008.295.014.242-2.934 2.917-5.248 6.188-5.248s6.213 2.542 6.213 5.679c0 .889-.23 1.725-.628 2.476 3.11.63 5.438 3.16 5.438 6.192 0 3.505-3.108 6.347-6.943 6.347-.28 0-9.264-.048-9.264-.048-2.716 0-4.917-2.012-4.917-4.494 0-1.193.511-2.271 1.34-3.077-1.38-.723-2.312-2.08-2.312-3.64" fill="#fff" /></symbol><symbol fill="none" viewBox="0 0 88 80" id="sdg-16"><path d="M88 0H0v80h88V0Z" fill="#004C84" /><path d="M58.981 22.288s-.846 1.027-.6 2.03c.247 1.002 1.497 1.598 1.497 1.598s.846-1.027.6-2.03c-.247-1.001-1.495-1.598-1.495-1.598M57.6 28.158s.845-1.029.6-2.03c-.248-1.001-1.498-1.596-1.498-1.596s-.848 1.028-.6 2.03c.248 1.002 1.497 1.598 1.497 1.598M61.08 27.059s.895.825 1.913.74c1.017-.081 1.772-1.04 1.772-1.04s-.893-.825-1.913-.743c-1.017.084-1.774 1.041-1.774 1.041M62.545 22.655c-.828.768-.711 2.13-.711 2.13s1.46.114 2.29-.652c.829-.768.712-2.127.712-2.127s-1.46-.115-2.29.651M60.716 30.114c1.013.109 1.969-.687 1.969-.687s-.692-.974-1.704-1.084c-1.016-.109-1.97.689-1.97.689s.69.973 1.707 1.082M61.623 45.026h-7.584c-.593 0-1.074.438-1.074.98s.481.981 1.074.981h7.584c.592 0 1.072-.44 1.072-.98s-.48-.981-1.072-.981ZM61.623 55.838h-7.584c-.593 0-1.074.439-1.074.98 0 .543.481.981 1.074.981h7.584c.592 0 1.072-.44 1.072-.98s-.48-.98-1.072-.98ZM27.52 42.646a4.973 4.973 0 0 0-.528-.125s.195.054.527.125Z" fill="#fff" /><path d="M39.81 46.89c.5.007 1.003-.006 1.504-.038v3.623l-1.504-.032V46.89Zm21.535.783h-7.026c-.337 0-.61.252-.61.558v1.945l-4.588.46-6.702-.14v-3.743c.89-.103 1.782-.267 2.667-.495 6.451-1.665 7.858-5.338 7.718-8.713-.14-3.437 1.063-4.77 2.79-5.363a8.47 8.47 0 0 1 1.433-.347c.02.844.206 1.825.618 2.995.154-.008.306-.02.458-.035-.437-1.196-.622-2.18-.632-3.018.893-.096 1.53-.043 1.53-.043s-.604-.297-1.456-.948c.29-1.628 1.35-2.626 2.443-3.647.6-.564 1.22-1.143 1.71-1.835l-.38-.224c-.462.657-1.07 1.222-1.653 1.77-1.065.996-2.141 2.014-2.506 3.63a13.632 13.632 0 0 1-1.103-1.017c-1.59-1.63-3.638-.433-6.558 2.052-2.923 2.486-6.595 2.57-10.185-.787-4.733-4.431-8.862-4.406-11.695-4.155 1.938.755 2.614 2.41 3.595 6.617 1.027 4.414 3.618 6.41 7.165 6.687-1.644.244-2.07.452-4.712 2.12-2.063 1.301-4.966.89-6.143.645 2.16.615 4.72 2.688 7.008 3.407 1.334.42 2.74.679 4.178.784v3.583l-12.711-.251v2.499l23.125-.47 4.588.462V54.6c0 .308.273.56.61.56h7.026c.337 0 .612-.252.612-.56v-6.375c0-.308-.275-.558-.612-.558M25.335 52.255c0 .526-.401.955-.896.955h-.54c-.495 0-.899-.427-.899-.955v-1.727c0-.529.404-.956.899-.956h.54c.495 0 .896.427.896.956v1.727Z" fill="#fff" /></symbol><symbol fill="none" viewBox="0 0 88 80" id="sdg-17"><path d="M88 0H0v80h88V0Z" fill="#1F3262" /><path d="M51.366 38.996c2.236-1.899 3.642-4.607 3.642-7.61 0-.45-.036-.894-.096-1.328 4.546.444 8.1 3.97 8.1 8.246 0 2.427-1.154 4.609-2.98 6.127-1.71-2.928-4.907-5.022-8.666-5.435Zm7.71 10.307c0 4.572-4.069 8.294-9.071 8.294-1.628 0-3.15-.4-4.472-1.088 1.93-1.862 3.119-4.375 3.119-7.136 0-.68-.074-1.343-.212-1.986a12.126 12.126 0 0 0 5.5 1.302c1.773 0 3.456-.374 4.951-1.04.12.535.183 1.089.183 1.656m-30.855.069c0-.591.068-1.164.199-1.72a12.168 12.168 0 0 0 4.938 1.033c1.988 0 3.856-.47 5.484-1.294a9.523 9.523 0 0 0-.197 1.91c0 2.806 1.226 5.352 3.211 7.223a9.647 9.647 0 0 1-4.564 1.139c-5.002 0-9.071-3.72-9.071-8.294m-3.934-11.069c0-4.273 3.552-7.8 8.098-8.246a9.62 9.62 0 0 0-.095 1.327c0 3.036 1.433 5.77 3.712 7.672-3.769.392-6.982 2.474-8.709 5.396-1.84-1.519-3.006-3.71-3.006-6.149Zm19.36-15.212c3.718 0 6.916 2.055 8.315 4.987-3.69.594-6.77 2.82-8.314 5.835-1.543-3.014-4.625-5.24-8.315-5.835 1.402-2.932 4.599-4.987 8.315-4.987Zm2.16 18.866a9.69 9.69 0 0 1 4.198-.948c3.566 0 6.65 1.897 8.132 4.64a9.703 9.703 0 0 1-4.198.947c-3.567 0-6.652-1.896-8.131-4.64Zm-4.349.056c-1.491 2.714-4.558 4.583-8.1 4.583a9.685 9.685 0 0 1-4.168-.935c1.493-2.714 4.56-4.584 8.102-4.584 1.503 0 2.917.341 4.166.936Zm-6.763-11.904c4.37.595 7.734 4.038 7.734 8.194 0 .433-.049.858-.119 1.275-4.369-.594-7.733-4.035-7.733-8.194 0-.434.046-.86.118-1.275Zm8.995 25.135c-1.698-1.507-2.756-3.612-2.756-5.94 0-2.327 1.025-4.37 2.673-5.874 1.698 1.507 2.756 3.613 2.756 5.942 0 2.33-1.023 4.37-2.672 5.872Zm9.03-23.858c0 4.157-3.364 7.6-7.733 8.194a7.654 7.654 0 0 1-.119-1.275c0-4.158 3.365-7.6 7.734-8.194.07.415.119.84.119 1.275Zm12.58 6.919c0-5.599-4.873-10.175-10.942-10.377C52.795 23.895 48.586 21 43.648 21c-4.939 0-9.148 2.897-10.71 6.927C26.87 28.129 22 32.705 22 38.304c0 3.322 1.718 6.283 4.383 8.186a9.581 9.581 0 0 0-.449 2.883c0 5.724 5.096 10.384 11.36 10.384 2.377 0 4.583-.673 6.41-1.82a12.062 12.062 0 0 0 6.301 1.75c6.262 0 11.358-4.66 11.358-10.384 0-.98-.152-1.928-.43-2.825 2.652-1.902 4.364-4.858 4.364-8.174Z" fill="#fff" /></symbol><symbol fill="none" viewBox="0 0 88 80" id="sdg-2"><path d="M88 0H0v80h88V0Z" fill="#D6A102" /><path d="M35.928 55.952v1.121s-.004.017-.004.025c0 .01.004.018.004.028.013.276.26.499.565.503l.012.002.013-.002h14.386l.012.002.013-.002c.314-.006.566-.24.568-.527 0 0 .002 0 .002-.004 0 0-.002 0-.002-.004v-1.269c8.098-2.427 14.165-8.428 15.498-15.74a.392.392 0 0 0 .008-.043c.004-.026.008-.049.008-.074 0-.295-.26-.533-.58-.533H20.582c-.324 0-.583.238-.583.533l.031.24c1.402 7.382 7.635 13.416 15.899 15.744M51.483 21.544c-.189.246-4.618 6.077.1 10.791 2.163 2.164 1.974 4.073 1.358 5.363h3.026c.612-1.904.36-4.29-2.098-6.745-3.476-3.474.045-8.17.098-8.243.415-.536.193-1.226-.492-1.548-.686-.32-1.575-.148-1.992.384M43.818 37.698h3.028c.612-1.904.356-4.29-2.1-6.745-3.478-3.474.041-8.169.096-8.245.413-.534.194-1.222-.492-1.546-.684-.32-1.575-.15-1.99.384-.19.246-4.623 6.077.1 10.791 2.163 2.164 1.974 4.074 1.358 5.363M33.239 21.544c-.191.246-4.62 6.077.097 10.791 2.164 2.164 1.977 4.075 1.361 5.363h3.026c.612-1.903.358-4.29-2.1-6.745-3.476-3.474.043-8.17.1-8.245.41-.534.19-1.224-.496-1.546-.684-.322-1.575-.15-1.988.384" fill="#fff" /></symbol><symbol fill="none" viewBox="0 0 88 80" id="sdg-3"><path d="M88 0H0v80h88V0Z" fill="#289438" /><path d="M72.893 40.782c0-2.244-1.576-4.063-3.96-4.063-1.193 0-2.63 1.193-3.411 1.928-.782-.735-2.125-1.93-3.317-1.93-2.384 0-4.055 1.819-4.055 4.063 0 1.12.484 2.136 1.266 2.873l6.113 5.6 6.104-5.594-.004-.004c.782-.735 1.266-1.752 1.266-2.873" fill="#fff" /><path d="M46.866 58.395h-.062c-.464-.026-.848-.342-.928-.76L42.77 41.1l-4.704 7.974c-.207.349-.636.538-1.059.468-.427-.07-.756-.383-.819-.774l-1.996-12.76-3.653 7.502c-.162.331-.52.544-.917.544H15.424c-.554 0-1.004-.412-1.004-.919 0-.506.45-.918 1.004-.918H28.97l4.806-9.868c.181-.375.612-.591 1.056-.536.443.056.792.374.856.78l2.059 13.157 4.638-7.863c.203-.345.624-.534 1.047-.47.423.063.754.365.827.751l2.875 15.314 10.48-31.828c.12-.363.47-.62.884-.652.413-.027.803.176.982.517l5.516 10.452c.24.456.03 1.006-.468 1.224-.5.22-1.1.03-1.341-.427l-4.393-8.327L47.83 57.743c-.129.39-.52.653-.961.653" fill="#fff" /></symbol><symbol fill="none" viewBox="0 0 88 80" id="sdg-4"><path d="M88 0H0v80h88V0Z" fill="#C11728" /><path d="M38.668 31.476 23.03 23.22v26.71l15.64 4.314V31.476ZM40.39 31.53v22.724l15.741-4.328V23.219l-15.74 8.311ZM65.17 49.456h-.461l1.852 5.913 1.848-5.913h-.46.46V25.691H64.71v23.765h.46Z" fill="#fff" /><path d="m59.491 24.365-1.676-1.21v27.5l-17.38 5.133H38.667l-17.3-4.418V23.155l-1.678 1.21v28.08l18.9 4.783h1.924l17.437-5.06 1.54-.416V24.365ZM68.41 22.542c0-.936-.83-1.692-1.849-1.692-1.02 0-1.852.756-1.852 1.692v1.823h3.7v-1.823Z" fill="#fff" /></symbol><symbol fill="none" viewBox="0 0 88 80" id="sdg-5"><path d="M88 0H0v80h88V0Z" fill="#E6331D" /><path d="M43.194 46.691c-5.76 0-10.447-4.285-10.447-9.553 0-5.267 4.687-9.552 10.447-9.552 5.761 0 10.45 4.285 10.45 9.552 0 5.268-4.687 9.553-10.45 9.553Zm20.067-27.69H52.424c-.075 0-.139.057-.139.128v3.292c0 .07.065.127.139.127h4.316l-4.792 4.383c-2.414-1.733-5.451-2.773-8.752-2.773C35.37 24.159 29 29.98 29 37.136c0 6.59 5.4 12.043 12.364 12.867v3.794h-4.275c-.08 0-.14.057-.14.125v3.529c0 .07.06.126.14.126h4.275v3.734c0 .07.06.126.138.126h3.858c.077 0 .14-.056.14-.126v-3.734h4.276c.076 0 .139-.056.139-.126v-3.529c0-.068-.06-.125-.139-.125h-4.275v-3.856c6.736-1.01 11.892-6.365 11.892-12.805 0-2.778-.961-5.351-2.593-7.464l4.724-4.32v3.684c0 .07.064.127.14.127h3.601c.078 0 .14-.057.14-.127v-9.91c0-.07-.064-.126-.14-.126" fill="#fff" /><path d="M49.578 33.215H36.904c-.076 0-.138.051-.138.113v2.806c0 .066.06.115.138.115h12.674c.078 0 .14-.049.14-.115v-2.806c0-.062-.06-.113-.14-.113ZM49.578 38.224H36.904c-.076 0-.138.053-.138.117v2.806c0 .062.06.113.138.113h12.674c.078 0 .14-.051.14-.113V38.34c0-.064-.06-.117-.14-.117Z" fill="#fff" /></symbol><symbol fill="none" viewBox="0 0 88 80" id="sdg-6"><path d="M88 0H0v80h88V0Z" fill="#00A7D7" /><path d="M58.104 26.299c-.858-.345-1.944-.22-2.989.166-3.926 1.454-6.597 1.978-10.726.795-2.6-.745-5.034-2.302-7.91-1.353-1.908.628-3.686 1.226-5.844 1.21l-1.246-5.84H59l-.897 5.022h.002ZM48.068 43.646s-1.437 1.35-3.776 1.205c-2.344.146-3.779-1.205-3.779-1.205-2.37-2.166-1.524-4.858-.7-6.25.51-.872 4.151-5.872 4.465-6.297v-.034l.014.016.011-.015v.033c.304.425 3.952 5.425 4.463 6.297.826 1.392 1.669 4.086-.7 6.25m12.227-23.531a.397.397 0 0 0-.286-.115H28.37a.4.4 0 0 0-.285.115.324.324 0 0 0-.08.273l5.315 29.393c.029.162.185.283.364.283h6.523l.447 4.788h-2.745l6.388 5.843 6.403-5.853h-2.745l.446-4.776h6.638c.184 0 .336-.121.363-.289l4.973-29.387a.32.32 0 0 0-.084-.273" fill="#fff" /></symbol><symbol fill="none" viewBox="0 0 88 80" id="sdg-7"><path d="M88 0H0v80h88V0Z" fill="#FBB800" /><path d="M44.244 45.423c-3.67 0-6.648-2.722-6.648-6.079 0-2.729 1.965-5.035 4.671-5.805v2.263c-1.41.659-2.376 1.996-2.376 3.542 0 2.197 1.947 3.98 4.351 3.98s4.351-1.782 4.351-3.98c0-1.552-.97-2.89-2.388-3.548v-2.261c2.714.766 4.685 3.076 4.685 5.807 0 3.358-2.977 6.079-6.648 6.079m-.95-13.058c0-.39.428-.817.952-.817.525 0 .947.43.947.817v4.012c0 .388-.422.811-.947.811-.524 0-.951-.423-.951-.81v-4.013Zm.946-4.616c-7.057 0-12.779 5.232-12.779 11.685s5.722 11.688 12.78 11.688c7.056 0 12.778-5.231 12.778-11.688 0-6.457-5.722-11.685-12.779-11.685ZM29.57 39.333c0-.53-.513-.959-.983-.959H22.99c-.471 0-.99.429-.99.96 0 .53.519.962.99.962h5.598c.467 0 .982-.43.982-.963ZM66.488 39.333c0-.53-.513-.959-.983-.959h-5.597c-.471 0-.99.429-.99.96 0 .53.519.962.99.962h5.597c.468 0 .983-.43.983-.963ZM44.246 59.67c.58 0 1.049-.47 1.049-.898v-5.118c0-.43-.47-.905-1.049-.905s-1.053.474-1.053.905v5.118c0 .428.474.898 1.053.898ZM63.55 49.434c.287-.46.074-1.064-.331-1.279l-4.858-2.542c-.41-.214-1.094-.076-1.38.384-.29.46-.075 1.07.334 1.285l4.859 2.542c.407.212 1.086.072 1.376-.39ZM33.199 56.986c.503.264 1.163.069 1.397-.304l2.78-4.44c.234-.375.084-1-.419-1.264-.503-.263-1.172-.066-1.405.308l-2.78 4.441c-.232.372-.078.994.427 1.258M55.333 56.963c.503-.263.653-.885.42-1.256l-2.789-4.437c-.236-.374-.9-.57-1.404-.306-.503.265-.655.891-.417 1.266l2.79 4.435c.234.37.899.563 1.402.298M24.961 49.474c.289.459.967.597 1.375.384l4.85-2.55c.41-.214.626-.822.335-1.282-.288-.46-.973-.599-1.382-.384l-4.852 2.55c-.406.212-.616.822-.326 1.282ZM44.246 25.919c.58 0 1.049-.47 1.049-.897v-5.117c0-.431-.47-.905-1.049-.905s-1.053.474-1.053.905v5.117c0 .429.474.897 1.053.897ZM31.51 32.668c.288-.46.075-1.067-.332-1.28l-4.859-2.541c-.409-.215-1.091-.078-1.38.382-.288.462-.074 1.07.337 1.285l4.859 2.542c.407.212 1.085.072 1.374-.39M51.534 27.69c.503.264 1.164.069 1.398-.302l2.78-4.44c.236-.375.084-1-.417-1.264-.503-.265-1.172-.066-1.406.308l-2.78 4.441c-.232.372-.078.994.427 1.258M36.931 27.702c.503-.263.654-.885.42-1.257l-2.79-4.437c-.236-.375-.901-.57-1.404-.306-.505.265-.655.89-.42 1.265l2.79 4.435c.235.372.9.563 1.402.298M56.967 32.649c.288.458.967.596 1.374.384l4.85-2.55c.41-.215.627-.823.338-1.283-.29-.46-.973-.598-1.384-.384l-4.852 2.55c-.406.212-.617.823-.326 1.283Z" fill="#fff" /></symbol><symbol fill="none" viewBox="0 0 88 80" id="sdg-8"><path d="M88 0H0v80h88V0Z" fill="#931831" /><path d="m60.897 27.592-8.865 7.709c-.335.304-.507.528-.507 1.158v21.606c0 .254.227.462.507.462h9.155c.28 0 .505-.206.505-.462V27.787c0-.255-.218-.721-.797-.195M35.36 37.636l-8.865 7.709c-.333.304-.505.528-.505 1.156v11.565c0 .253.226.46.505.46h9.157c.279 0 .505-.207.505-.46V37.829c0-.255-.22-.721-.797-.193Z" fill="#fff" /><path d="M64.925 18.242a.217.217 0 0 0-.076-.176.294.294 0 0 0-.164-.066h-.049l-.072.006-6.788 1.4-.123.011a.278.278 0 0 0-.133.063c-.1.091-.1.241 0 .333l.076.07 1.55 1.418-15.38 14.061-7.104-6.495a.215.215 0 0 0-.288 0l-1.928 1.762v.002L23.059 41.04a.18.18 0 0 0 0 .265l1.93 1.764a.213.213 0 0 0 .286 0L36.52 32.791l5.155 4.714s.007.016.015.021l1.928 1.76c.08.075.209.075.289 0L61.36 23.329l1.628 1.488c.1.091.263.091.362 0a.226.226 0 0 0 .075-.152v-.02l1.49-6.334.005-.068h.004Z" fill="#fff" /><path d="m48.178 38.989-4.289 3.953a.22.22 0 0 1-.277-.01l-3.885-3.62c-.712-.647-.866-.123-.866.133v18.622c0 .253.225.462.501.462h9.16c.276 0 .502-.207.502-.462v-18.93c0-.256-.22-.722-.848-.147" fill="#fff" /></symbol><symbol fill="none" viewBox="0 0 88 80" id="sdg-9"><path d="M88 0H0v80h88V0Z" fill="#EC6411" /><path d="m64.874 52.22-9.305 4.912V47.31l9.305-4.913v9.824Zm-30.742 4.912v-9.076l8.597 4.539-8.597 4.537Zm-1.413 0-9.306-4.911v-9.824l9.305 4.913v9.822Zm10.01-27.171-8.597 4.538v-9.077l8.597 4.539Zm11.425 4.538-8.596-4.538 8.596-4.539V34.5Zm-8.596 6.777 9.303-4.91 9.305 4.908-9.305 4.913-9.303-4.913v.002Zm-2.121-1.12L34.84 35.62l8.597-4.538v9.075Zm10.01-4.536-8.595 4.537v-9.075l8.596 4.538Zm-10.01 15.854-8.597-4.539 8.597-4.538v9.077Zm22.498-10.758-10.368-5.47V24.303a.636.636 0 0 0-.353-.56l-10.716-5.657a.768.768 0 0 0-.708 0L33.07 23.744a.639.639 0 0 0-.352.56v10.942l-10.366 5.47a.639.639 0 0 0-.353.56v11.317c0 .232.134.444.353.56L33.07 58.81a.772.772 0 0 0 .706 0l10.366-5.47 10.364 5.47a.772.772 0 0 0 .706 0l10.72-5.657a.639.639 0 0 0 .353-.56V41.276a.637.637 0 0 0-.353-.56" fill="#fff" /></symbol><symbol viewBox="155.9 0.8 283.5 283.5" id="sdg-wheel"><path fill="#67B448" d="M228.7 102.1c3.5-6 7.8-11.5 12.7-16.4L199.8 40c-10.5 10-19.4 21.6-26.4 34.4l55.3 27.7z" /><path fill="#E4B631" d="M330.8 69.8c6.3 2.9 12.2 6.6 17.5 10.9l41.8-45.6c-11-9.5-23.5-17.3-37-23.1l-22.3 57.8z" /><path fill="#C32133" d="m426.9 82.4-55.8 28.7c2.6 6.2 4.5 12.7 5.5 19.6l62-6.9c-1.7-14.6-5.8-28.5-11.7-41.4" /><path fill="#4B9E45" d="m367.2 103.1 55.4-27.6c-6.9-12.7-15.6-24.3-25.9-34.3l-41.8 45.6c4.8 4.8 8.9 10.3 12.3 16.3" /><path fill="#438045" d="M217.7 142.5c0-1.2 0-2.5.1-3.7l-61.6-5.5c-.2 3.1-.3 6.1-.3 9.2 0 11.8 1.5 23.3 4.2 34.3l59.5-17.1c-1.2-5.6-1.9-11.3-1.9-17.2" /><path fill="#F8C315" d="M359.4 193.1c-4.4 5.3-9.4 10.1-15 14.2l32.5 52.6c12.1-8.2 22.8-18.2 31.9-29.6l-49.4-37.2z" /><path fill="#E74330" d="M377.5 142.5c0 5.8-.6 11.5-1.8 17l59.5 17.1c2.7-10.9 4.2-22.3 4.2-34.1 0-2.9-.1-5.8-.3-8.7l-61.6 5.8v2.9" /><path fill="#F49D2A" d="m236.8 194.3-49.2 37.4c9.2 11.2 20 21.1 32.2 29.1l32.5-52.6c-5.7-3.9-10.9-8.6-15.5-13.9" /><path fill="#2294D2" d="M218.7 129.8c1.1-7 3.1-13.6 5.9-19.9l-55.3-27.6c-6.1 13-10.3 27.1-12.2 41.9l61.6 5.6z" /><path fill="#A11D45" d="m369.3 264.7-32.5-52.6c-5.9 3.3-12.3 5.9-19 7.7l11.5 60.9c14.3-3.3 27.8-8.8 40-16" /><path fill="#28BAE0" d="M373.3 168.1c-2.2 6.3-5 12.3-8.6 17.8l49.4 37.3c8-11.5 14.4-24.3 18.7-38l-59.5-17.1z" /><path fill="#EC6C30" d="M309.2 221.6c-3.8.6-7.6.8-11.5.8-3.2 0-6.3-.2-9.3-.5L277 282.8c6.8 1 13.7 1.5 20.8 1.5 7.8 0 15.5-.6 23-1.9l-11.6-60.8z" /><path fill="#E5293D" d="M302.7 62.7c6.9.4 13.5 1.7 19.8 3.8l22.2-57.7c-13.2-4.7-27.3-7.4-42-7.9v61.8z" /><path fill="#DF1C69" d="M279.5 220.3c-6.9-1.6-13.5-4.1-19.6-7.4l-32.5 52.7c12.5 7.2 26.2 12.5 40.7 15.6l11.4-60.9z" /><path fill="#1C4A6C" d="M273.6 66.2c6.4-2 13.2-3.3 20.2-3.6V.8c-14.9.4-29.2 3.1-42.6 7.7l22.4 57.7z" /><path fill="#C5982E" d="M231.4 187.2c-3.9-5.8-7.1-12.1-9.4-18.9l-59.5 17.1c4.5 14.2 11.2 27.4 19.7 39.3l49.2-37.5z" /><path fill="#056B9F" d="M248.1 79.8c5.2-4.1 11-7.6 17.1-10.4l-22.4-57.7c-13.3 5.6-25.6 13.2-36.5 22.3l41.8 45.8z" /></symbol></defs></svg>